JosefinSans-BoldItalic.ufo
<glyph name="exclam" format="2">
  <advance width="202"/>
  <unicode hex="0021"/>
  <outline>
    <contour>
      <point x="112" y="765" type="line"/>
      <point x="42" y="199" type="line"/>
      <point x="167" y="199" type="line"/>
      <point x="237" y="765" type="line"/>
    </contour>
    <contour>
      <point x="74" y="-14" type="curve"/>
      <point x="122" y="-17"/>
      <point x="157" y="9"/>
      <point x="162" y="52" type="curve"/>
      <point x="167" y="93"/>
      <point x="139" y="127"/>
      <point x="92" y="130" type="curve"/>
      <point x="45" y="133"/>
      <point x="6" y="103"/>
      <point x="1" y="62" type="curve"/>
      <point x="-4" y="19"/>
      <point x="26" y="-11"/>
    </contour>
  </outline>
</glyph>
<glyph name="quotedbl" format="2">
  <advance width="366"/>
  <unicode hex="0022"/>
  <outline>
    <contour>
      <point x="276" y="734" type="curve"/>
      <point x="154" y="734" type="line"/>
      <point x="123" y="481" type="line"/>
      <point x="241" y="481" type="line"/>
      <point x="252" y="566"/>
      <point x="265" y="650"/>
    </contour>
    <contour>
      <point x="412" y="734" type="curve"/>
      <point x="290" y="734" type="line"/>
      <point x="259" y="481" type="line"/>
      <point x="377" y="481" type="line"/>
      <point x="388" y="566"/>
      <point x="401" y="650"/>
    </contour>
  </outline>
</glyph>
<glyph name="numbersign" format="2">
  <advance width="582"/>
  <unicode hex="0023"/>
  <outline>
    <contour>
      <point x="368" y="656" type="curve"/>
      <point x="242" y="656" type="line"/>
      <point x="226" y="596"/>
      <point x="212" y="539"/>
      <point x="197" y="479" type="curve"/>
      <point x="118" y="479" type="line"/>
      <point x="108" y="439"/>
      <point x="100" y="398"/>
      <point x="90" y="358" type="curve"/>
      <point x="169" y="358" type="line"/>
      <point x="163" y="336"/>
      <point x="159" y="314"/>
      <point x="153" y="292" type="curve"/>
      <point x="74" y="292" type="line"/>
      <point x="65" y="251"/>
      <point x="54" y="211"/>
      <point x="44" y="170" type="curve"/>
      <point x="123" y="170" type="line"/>
      <point x="110" y="113"/>
      <point x="95" y="57"/>
      <point x="82" y="0" type="curve"/>
      <point x="209" y="0" type="line"/>
      <point x="221" y="57"/>
      <point x="237" y="113"/>
      <point x="250" y="170" type="curve"/>
      <point x="311" y="170" type="line"/>
      <point x="298" y="113"/>
      <point x="283" y="57"/>
      <point x="270" y="0" type="curve"/>
      <point x="396" y="0" type="line"/>
      <point x="409" y="57"/>
      <point x="424" y="113"/>
      <point x="437" y="170" type="curve"/>
      <point x="522" y="170" type="line"/>
      <point x="531" y="211"/>
      <point x="542" y="251"/>
      <point x="552" y="292" type="curve"/>
      <point x="467" y="292" type="line"/>
      <point x="472" y="314"/>
      <point x="477" y="336"/>
      <point x="483" y="358" type="curve"/>
      <point x="568" y="358" type="line"/>
      <point x="578" y="398"/>
      <point x="586" y="439"/>
      <point x="595" y="479" type="curve"/>
      <point x="511" y="479" type="line"/>
      <point x="526" y="539"/>
      <point x="540" y="596"/>
      <point x="556" y="656" type="curve"/>
      <point x="429" y="656" type="line"/>
      <point x="414" y="596"/>
      <point x="399" y="539"/>
      <point x="385" y="479" type="curve"/>
      <point x="323" y="479" type="line"/>
      <point x="338" y="539"/>
      <point x="352" y="596"/>
    </contour>
    <contour>
      <point x="295" y="358" type="curve"/>
      <point x="356" y="358" type="line"/>
      <point x="351" y="336"/>
      <point x="346" y="314"/>
      <point x="341" y="292" type="curve"/>
      <point x="279" y="292" type="line"/>
      <point x="285" y="314"/>
      <point x="290" y="336"/>
    </contour>
  </outline>
</glyph>
<glyph name="dollar" format="2">
  <advance width="587"/>
  <unicode hex="0024"/>
  <outline>
    <contour>
      <point x="199" y="-68" type="line"/>
      <point x="283" y="-68" type="line"/>
      <point x="332" y="337" type="line"/>
      <point x="387" y="376" type="line"/>
      <point x="439" y="804" type="line"/>
      <point x="355" y="804" type="line"/>
      <point x="307" y="413" type="line"/>
      <point x="252" y="374" type="line"/>
    </contour>
    <component base="S"/>
  </outline>
</glyph>
<glyph name="percent" format="2">
  <advance width="850"/>
  <unicode hex="0025"/>
  <outline>
    <contour>
      <point x="206" y="294" type="curve"/>
      <point x="315" y="288"/>
      <point x="376" y="366"/>
      <point x="389" y="474" type="curve"/>
      <point x="402" y="581"/>
      <point x="362" y="666"/>
      <point x="252" y="673" type="curve"/>
      <point x="142" y="679"/>
      <point x="82" y="601"/>
      <point x="69" y="494" type="curve"/>
      <point x="56" y="386"/>
      <point x="95" y="301"/>
    </contour>
    <contour>
      <point x="218" y="392" type="curve"/>
      <point x="187" y="394"/>
      <point x="184" y="431"/>
      <point x="190" y="486" type="curve"/>
      <point x="198" y="549"/>
      <point x="209" y="576"/>
      <point x="240" y="574" type="curve"/>
      <point x="271" y="572"/>
      <point x="275" y="545"/>
      <point x="267" y="482" type="curve"/>
      <point x="260" y="427"/>
      <point x="249" y="390"/>
    </contour>
    <contour>
      <point x="624" y="-28" type="curve"/>
      <point x="733" y="-34"/>
      <point x="794" y="44"/>
      <point x="807" y="152" type="curve"/>
      <point x="820" y="259"/>
      <point x="780" y="344"/>
      <point x="670" y="351" type="curve"/>
      <point x="560" y="357"/>
      <point x="500" y="279"/>
      <point x="487" y="172" type="curve"/>
      <point x="474" y="64"/>
      <point x="513" y="-21"/>
    </contour>
    <contour>
      <point x="636" y="70" type="curve"/>
      <point x="605" y="72"/>
      <point x="602" y="109"/>
      <point x="608" y="164" type="curve"/>
      <point x="616" y="227"/>
      <point x="627" y="254"/>
      <point x="658" y="252" type="curve"/>
      <point x="689" y="250"/>
      <point x="693" y="223"/>
      <point x="685" y="160" type="curve"/>
      <point x="678" y="105"/>
      <point x="667" y="68"/>
    </contour>
    <contour>
      <point x="802" y="673" type="line"/>
      <point x="663" y="673" type="line"/>
      <point x="97" y="0" type="line"/>
      <point x="234" y="-2" type="line"/>
    </contour>
  </outline>
</glyph>
<glyph name="quotesingle" format="2">
  <advance width="175"/>
  <unicode hex="0027"/>
  <outline>
    <contour>
      <point x="242" y="734" type="curve"/>
      <point x="118" y="734" type="line"/>
      <point x="87" y="481" type="line"/>
      <point x="207" y="481" type="line"/>
      <point x="218" y="566"/>
      <point x="231" y="650"/>
    </contour>
  </outline>
</glyph>
<glyph name="parenleft" format="2">
  <advance width="409"/>
  <unicode hex="0028"/>
  <outline>
    <contour>
      <point x="86" y="305" type="curve" smooth="yes"/>
      <point x="86" y="305" type="line" smooth="yes"/>
      <point x="61" y="101"/>
      <point x="123" y="-73"/>
      <point x="196" y="-169" type="curve"/>
      <point x="317" y="-122" type="line"/>
      <point x="251" y="-28"/>
      <point x="209" y="112"/>
      <point x="231" y="296" type="curve" smooth="yes"/>
      <point x="254" y="479"/>
      <point x="329" y="613"/>
      <point x="417" y="698" type="curve"/>
      <point x="310" y="758" type="line"/>
      <point x="214" y="673"/>
      <point x="111" y="508"/>
    </contour>
  </outline>
</glyph>
<glyph name="parenright" format="2">
  <advance width="409"/>
  <unicode hex="0029"/>
  <outline>
    <contour>
      <point x="342" y="287" type="curve" smooth="yes"/>
      <point x="342" y="287" type="line" smooth="yes"/>
      <point x="367" y="491"/>
      <point x="305" y="665"/>
      <point x="232" y="761" type="curve"/>
      <point x="111" y="714" type="line"/>
      <point x="177" y="620"/>
      <point x="219" y="480"/>
      <point x="197" y="296" type="curve" smooth="yes"/>
      <point x="174" y="113"/>
      <point x="99" y="-21"/>
      <point x="11" y="-106" type="curve"/>
      <point x="118" y="-166" type="line"/>
      <point x="214" y="-81"/>
      <point x="317" y="84"/>
    </contour>
  </outline>
</glyph>
<glyph name="asterisk" format="2">
  <advance width="335"/>
  <unicode hex="002A"/>
  <outline>
    <contour>
      <point x="190" y="504" type="curve"/>
      <point x="182" y="434" type="line"/>
      <point x="262" y="434" type="line"/>
      <point x="265" y="457"/>
      <point x="268" y="480"/>
      <point x="271" y="503" type="curve"/>
      <point x="291" y="491"/>
      <point x="309" y="478"/>
      <point x="329" y="466" type="curve"/>
      <point x="346" y="490"/>
      <point x="363" y="515"/>
      <point x="380" y="539" type="curve"/>
      <point x="360" y="551"/>
      <point x="341" y="563"/>
      <point x="321" y="575" type="curve"/>
      <point x="321" y="575" type="line"/>
      <point x="345" y="587"/>
      <point x="367" y="600"/>
      <point x="391" y="612" type="curve"/>
      <point x="380" y="635"/>
      <point x="369" y="658"/>
      <point x="359" y="681" type="curve"/>
      <point x="337" y="669"/>
      <point x="313" y="657"/>
      <point x="291" y="645" type="curve"/>
      <point x="294" y="670"/>
      <point x="298" y="695"/>
      <point x="301" y="720" type="curve"/>
      <point x="217" y="720" type="line"/>
      <point x="208" y="645" type="line"/>
      <point x="188" y="657"/>
      <point x="169" y="670"/>
      <point x="149" y="682" type="curve"/>
      <point x="133" y="659"/>
      <point x="118" y="636"/>
      <point x="102" y="613" type="curve"/>
      <point x="120" y="601"/>
      <point x="140" y="588"/>
      <point x="158" y="576" type="curve"/>
      <point x="136" y="565"/>
      <point x="114" y="553"/>
      <point x="92" y="542" type="curve"/>
      <point x="103" y="518"/>
      <point x="114" y="493"/>
      <point x="125" y="469" type="curve"/>
      <point x="147" y="481"/>
      <point x="169" y="492"/>
    </contour>
  </outline>
</glyph>
<glyph name="plus" format="2">
  <advance width="554"/>
  <unicode hex="002B"/>
  <outline>
    <contour>
      <point x="259" y="419" type="line"/>
      <point x="244" y="295" type="line"/>
      <point x="124" y="295" type="line"/>
      <point x="109" y="174" type="line"/>
      <point x="229" y="174" type="line"/>
      <point x="214" y="52" type="line"/>
      <point x="341" y="52" type="line"/>
      <point x="356" y="174" type="line"/>
      <point x="476" y="174" type="line"/>
      <point x="491" y="295" type="line"/>
      <point x="371" y="295" type="line"/>
      <point x="386" y="419" type="line"/>
    </contour>
  </outline>
</glyph>
<glyph name="comma" format="2">
  <advance width="205"/>
  <unicode hex="002C"/>
  <outline>
    <contour>
      <point x="52" y="-214" type="line"/>
      <point x="111" y="-175"/>
      <point x="147" y="-87"/>
      <point x="136" y="-30" type="curve"/>
      <point x="14" y="-29" type="line"/>
      <point x="23" y="-76"/>
      <point x="9" y="-138"/>
      <point x="-20" y="-166" type="curve"/>
    </contour>
  </outline>
</glyph>
<glyph name="period" format="2">
  <advance width="167"/>
  <unicode hex="002E"/>
  <outline>
    <contour>
      <point x="23" y="64" type="curve" smooth="yes"/>
      <point x="23" y="64" type="line" smooth="yes"/>
      <point x="23" y="25"/>
      <point x="54" y="0"/>
      <point x="87" y="0" type="curve" smooth="yes"/>
      <point x="122" y="0"/>
      <point x="166" y="31"/>
      <point x="166" y="79" type="curve" smooth="yes"/>
      <point x="166" y="116"/>
      <point x="136" y="145"/>
      <point x="105" y="145" type="curve" smooth="yes"/>
      <point x="66" y="145"/>
      <point x="23" y="110"/>
    </contour>
  </outline>
</glyph>
<glyph name="slash" format="2">
  <advance width="421"/>
  <unicode hex="002F"/>
  <outline>
    <contour>
      <point x="520" y="751" type="curve"/>
      <point x="394" y="751" type="line"/>
      <point x="267" y="494"/>
      <point x="142" y="238"/>
      <point x="15" y="-19" type="curve"/>
      <point x="141" y="-19" type="line"/>
      <point x="268" y="238"/>
      <point x="393" y="494"/>
    </contour>
  </outline>
</glyph>
<glyph name="zero" format="2">
  <advance width="657"/>
  <unicode hex="0030"/>
  <outline>
    <contour>
      <point x="314" y="1" type="curve" smooth="yes"/>
      <point x="513" y="1"/>
      <point x="612" y="166"/>
      <point x="624" y="369" type="curve" smooth="yes"/>
      <point x="646" y="582"/>
      <point x="500" y="669"/>
      <point x="377" y="669" type="curve" smooth="yes"/>
      <point x="77" y="669"/>
      <point x="60" y="334"/>
      <point x="60" y="272" type="curve" smooth="yes"/>
      <point x="60" y="69"/>
      <point x="186" y="1"/>
    </contour>
    <contour>
      <point x="332" y="139" type="curve" smooth="yes"/>
      <point x="274" y="139"/>
      <point x="214" y="163"/>
      <point x="214" y="284" type="curve" smooth="yes"/>
      <point x="214" y="386"/>
      <point x="251" y="531"/>
      <point x="354" y="531" type="curve" smooth="yes"/>
      <point x="412" y="531"/>
      <point x="471" y="507"/>
      <point x="471" y="386" type="curve" smooth="yes"/>
      <point x="471" y="284"/>
      <point x="435" y="139"/>
    </contour>
  </outline>
</glyph>
<glyph name="one" format="2">
  <advance width="373"/>
  <unicode hex="0031"/>
  <outline>
    <contour>
      <point x="130" y="663" type="line"/>
      <point x="112" y="523" type="line"/>
      <point x="165" y="523" type="line"/>
      <point x="101" y="0" type="line"/>
      <point x="247" y="0" type="line"/>
      <point x="329" y="663" type="line"/>
    </contour>
  </outline>
</glyph>
<glyph name="two" format="2">
  <advance width="586"/>
  <unicode hex="0032"/>
  <outline>
    <contour>
      <point x="30" y="0" type="curve"/>
      <point x="509" y="0" type="line"/>
      <point x="526" y="140" type="line"/>
      <point x="280" y="140" type="line"/>
      <point x="348" y="121" type="line"/>
      <point x="506" y="276"/>
      <point x="558" y="356"/>
      <point x="558" y="472" type="curve" smooth="yes"/>
      <point x="558" y="588"/>
      <point x="483" y="671"/>
      <point x="326" y="671" type="curve" smooth="yes"/>
      <point x="146" y="671"/>
      <point x="65" y="551"/>
      <point x="65" y="453" type="curve" smooth="yes"/>
      <point x="65" y="382"/>
      <point x="103" y="308"/>
      <point x="136" y="275" type="curve"/>
      <point x="235" y="356" type="line"/>
      <point x="217" y="378"/>
      <point x="207" y="405"/>
      <point x="207" y="440" type="curve" smooth="yes"/>
      <point x="207" y="490"/>
      <point x="245" y="531"/>
      <point x="308" y="531" type="curve" smooth="yes"/>
      <point x="367" y="531"/>
      <point x="405" y="500"/>
      <point x="405" y="437" type="curve" smooth="yes"/>
      <point x="405" y="361"/>
      <point x="359" y="299"/>
    </contour>
  </outline>
</glyph>
<glyph name="three" format="2">
  <advance width="513"/>
  <unicode hex="0033"/>
  <outline>
    <contour>
      <point x="486" y="663" type="line"/>
      <point x="125" y="663" type="line"/>
      <point x="108" y="523" type="line"/>
      <point x="317" y="523" type="line"/>
      <point x="277" y="540" type="line"/>
      <point x="133" y="321" type="line"/>
      <point x="136" y="317" type="line"/>
      <point x="148" y="322"/>
      <point x="176" y="330"/>
      <point x="206" y="330" type="curve" smooth="yes"/>
      <point x="275" y="330"/>
      <point x="328" y="295"/>
      <point x="328" y="232" type="curve" smooth="yes"/>
      <point x="328" y="174"/>
      <point x="290" y="132"/>
      <point x="231" y="132" type="curve" smooth="yes"/>
      <point x="190" y="132"/>
      <point x="144" y="159"/>
      <point x="121" y="196" type="curve"/>
      <point x="33" y="80" type="line"/>
      <point x="78" y="22"/>
      <point x="169" y="-7"/>
      <point x="231" y="-7" type="curve" smooth="yes"/>
      <point x="405" y="-7"/>
      <point x="478" y="117"/>
      <point x="478" y="239" type="curve" smooth="yes"/>
      <point x="478" y="349"/>
      <point x="392" y="419"/>
      <point x="305" y="425" type="curve" smooth="yes"/>
      <point x="292" y="425"/>
      <point x="266" y="424"/>
      <point x="227" y="418" type="curve"/>
      <point x="301" y="375" type="line"/>
    </contour>
  </outline>
</glyph>
<glyph name="four" format="2">
  <advance width="522"/>
  <unicode hex="0034"/>
  <outline>
    <contour>
      <point x="-16" y="145" type="line"/>
      <point x="262" y="145" type="line"/>
      <point x="244" y="0" type="line"/>
      <point x="390" y="0" type="line"/>
      <point x="408" y="145" type="line"/>
      <point x="487" y="145" type="line"/>
      <point x="500" y="255" type="line"/>
      <point x="421" y="255" type="line"/>
      <point x="472" y="671" type="line"/>
      <point x="471" y="671" type="line"/>
      <point x="-16" y="146" type="line"/>
    </contour>
    <contour>
      <point x="293" y="351" type="line"/>
      <point x="288" y="357" type="line"/>
      <point x="275" y="255" type="line"/>
      <point x="187" y="255" type="line"/>
      <point x="198" y="242" type="line"/>
    </contour>
  </outline>
</glyph>
<glyph name="five" format="2">
  <advance width="515"/>
  <unicode hex="0035"/>
  <outline>
    <contour>
      <point x="235" y="-8" type="curve" smooth="yes"/>
      <point x="403" y="-8"/>
      <point x="480" y="117"/>
      <point x="480" y="239" type="curve" smooth="yes"/>
      <point x="480" y="403"/>
      <point x="350" y="449"/>
      <point x="270" y="449" type="curve" smooth="yes"/>
      <point x="246" y="449"/>
      <point x="225" y="447"/>
      <point x="213" y="444" type="curve"/>
      <point x="221" y="416" type="line"/>
      <point x="248" y="523" type="line"/>
      <point x="463" y="523" type="line"/>
      <point x="479" y="663" type="line"/>
      <point x="157" y="663" type="line"/>
      <point x="76" y="291" type="line"/>
      <point x="77" y="291" type="line"/>
      <point x="128" y="323"/>
      <point x="172" y="331"/>
      <point x="207" y="331" type="curve" smooth="yes"/>
      <point x="248" y="331"/>
      <point x="330" y="324"/>
      <point x="330" y="232" type="curve" smooth="yes"/>
      <point x="330" y="181"/>
      <point x="298" y="134"/>
      <point x="230" y="134" type="curve" smooth="yes"/>
      <point x="193" y="134"/>
      <point x="147" y="153"/>
      <point x="122" y="192" type="curve"/>
      <point x="33" y="80" type="line"/>
      <point x="81" y="23"/>
      <point x="177" y="-8"/>
    </contour>
  </outline>
</glyph>
<glyph name="six" format="2">
  <advance width="586"/>
  <unicode hex="0036"/>
  <outline>
    <contour>
      <point x="294" y="-8" type="curve" smooth="yes"/>
      <point x="478" y="-8"/>
      <point x="552" y="139"/>
      <point x="552" y="236" type="curve" smooth="yes"/>
      <point x="552" y="388"/>
      <point x="434" y="434"/>
      <point x="374" y="434" type="curve" smooth="yes"/>
      <point x="274" y="434"/>
      <point x="222" y="389"/>
      <point x="179" y="312" type="curve"/>
      <point x="214" y="306" type="line"/>
      <point x="225" y="394"/>
      <point x="310" y="515"/>
      <point x="477" y="568" type="curve"/>
      <point x="393" y="679" type="line"/>
      <point x="142" y="554"/>
      <point x="56" y="391"/>
      <point x="56" y="248" type="curve" smooth="yes"/>
      <point x="56" y="84"/>
      <point x="156" y="-8"/>
    </contour>
    <contour>
      <point x="295" y="122" type="curve" smooth="yes"/>
      <point x="239" y="122"/>
      <point x="199" y="164"/>
      <point x="199" y="216" type="curve" smooth="yes"/>
      <point x="199" y="258"/>
      <point x="222" y="315"/>
      <point x="304" y="315" type="curve" smooth="yes"/>
      <point x="360" y="315"/>
      <point x="401" y="285"/>
      <point x="401" y="230" type="curve" smooth="yes"/>
      <point x="401" y="190"/>
      <point x="377" y="122"/>
    </contour>
  </outline>
</glyph>
<glyph name="seven" format="2">
  <advance width="503"/>
  <unicode hex="0037"/>
  <outline>
    <contour>
      <point x="543" y="663" type="line"/>
      <point x="95" y="663" type="line"/>
      <point x="77" y="523" type="line"/>
      <point x="368" y="523" type="line"/>
      <point x="321" y="540" type="line"/>
      <point x="52" y="0" type="line"/>
      <point x="218" y="0" type="line"/>
    </contour>
  </outline>
</glyph>
<glyph name="eight" format="2">
  <advance width="573"/>
  <unicode hex="0038"/>
  <outline>
    <contour>
      <point x="36" y="207" type="curve" smooth="yes"/>
      <point x="36" y="95"/>
      <point x="131" y="-8"/>
      <point x="277" y="-8" type="curve" smooth="yes"/>
      <point x="475" y="-8"/>
      <point x="538" y="158"/>
      <point x="538" y="227" type="curve" smooth="yes"/>
      <point x="538" y="311"/>
      <point x="484" y="361"/>
      <point x="445" y="392" type="curve"/>
      <point x="490" y="431"/>
      <point x="517" y="463"/>
      <point x="517" y="528" type="curve" smooth="yes"/>
      <point x="517" y="607"/>
      <point x="431" y="671"/>
      <point x="326" y="671" type="curve" smooth="yes"/>
      <point x="185" y="671"/>
      <point x="135" y="570"/>
      <point x="135" y="503" type="curve" smooth="yes"/>
      <point x="135" y="460"/>
      <point x="153" y="436"/>
      <point x="175" y="408" type="curve"/>
      <point x="105" y="373"/>
      <point x="36" y="311"/>
    </contour>
    <contour>
      <point x="185" y="214" type="curve" smooth="yes"/>
      <point x="185" y="261"/>
      <point x="218" y="328"/>
      <point x="298" y="328" type="curve" smooth="yes"/>
      <point x="354" y="328"/>
      <point x="394" y="283"/>
      <point x="394" y="228" type="curve" smooth="yes"/>
      <point x="394" y="165"/>
      <point x="348" y="114"/>
      <point x="279" y="114" type="curve" smooth="yes"/>
      <point x="216" y="114"/>
      <point x="185" y="159"/>
    </contour>
    <contour>
      <point x="275" y="496" type="curve" smooth="yes"/>
      <point x="275" y="525"/>
      <point x="293" y="549"/>
      <point x="329" y="549" type="curve" smooth="yes"/>
      <point x="353" y="549"/>
      <point x="375" y="529"/>
      <point x="375" y="500" type="curve" smooth="yes"/>
      <point x="375" y="472"/>
      <point x="353" y="449"/>
      <point x="322" y="449" type="curve" smooth="yes"/>
      <point x="299" y="449"/>
      <point x="275" y="470"/>
    </contour>
  </outline>
</glyph>
<glyph name="nine" format="2">
  <advance width="573"/>
  <unicode hex="0039"/>
  <outline>
    <contour>
      <point x="250" y="210" type="curve"/>
      <point x="339" y="210"/>
      <point x="390" y="255"/>
      <point x="433" y="332" type="curve"/>
      <point x="398" y="338" type="line"/>
      <point x="387" y="250"/>
      <point x="266" y="159"/>
      <point x="99" y="106" type="curve"/>
      <point x="183" y="-5" type="line"/>
      <point x="470" y="138"/>
      <point x="561" y="269"/>
      <point x="561" y="427" type="curve" smooth="yes"/>
      <point x="561" y="553"/>
      <point x="459" y="652"/>
      <point x="318" y="652" type="curve" smooth="yes"/>
      <point x="134" y="652"/>
      <point x="60" y="504"/>
      <point x="60" y="408" type="curve" smooth="yes"/>
      <point x="60" y="276"/>
      <point x="168" y="210"/>
    </contour>
    <contour>
      <point x="308" y="329" type="curve" smooth="yes"/>
      <point x="253" y="329"/>
      <point x="212" y="358"/>
      <point x="212" y="413" type="curve" smooth="yes"/>
      <point x="212" y="454"/>
      <point x="235" y="522"/>
      <point x="317" y="522" type="curve" smooth="yes"/>
      <point x="378" y="522"/>
      <point x="418" y="473"/>
      <point x="412" y="423" type="curve" smooth="yes"/>
      <point x="405" y="358"/>
      <point x="371" y="329"/>
    </contour>
  </outline>
</glyph>
<glyph name="semicolon" format="2">
  <advance width="205"/>
  <unicode hex="003B"/>
  <outline>
    <contour>
      <point x="92" y="319" type="curve" smooth="yes"/>
      <point x="92" y="319" type="line" smooth="yes"/>
      <point x="92" y="280"/>
      <point x="122" y="255"/>
      <point x="154" y="255" type="curve" smooth="yes"/>
      <point x="191" y="255"/>
      <point x="234" y="286"/>
      <point x="234" y="334" type="curve" smooth="yes"/>
      <point x="234" y="371"/>
      <point x="204" y="400"/>
      <point x="172" y="400" type="curve" smooth="yes"/>
      <point x="135" y="400"/>
      <point x="92" y="365"/>
    </contour>
    <contour>
      <point x="185" y="88" type="curve"/>
      <point x="64" y="88" type="line"/>
      <point x="28" y="17"/>
      <point x="-5" y="-52"/>
      <point x="-41" y="-122" type="curve"/>
      <point x="71" y="-122" type="line"/>
      <point x="109" y="-52"/>
      <point x="146" y="17"/>
    </contour>
  </outline>
</glyph>
<glyph name="less" format="2">
  <advance width="555"/>
  <unicode hex="003C"/>
  <outline>
    <contour>
      <point x="436" y="-14" type="curve"/>
      <point x="458" y="158" type="line"/>
      <point x="458" y="158" type="line"/>
      <point x="413" y="186"/>
      <point x="367" y="215"/>
      <point x="322" y="243" type="curve"/>
      <point x="373" y="271"/>
      <point x="427" y="300"/>
      <point x="478" y="328" type="curve"/>
      <point x="499" y="499" type="line"/>
      <point x="340" y="414"/>
      <point x="182" y="328"/>
      <point x="23" y="243" type="curve"/>
      <point x="161" y="157"/>
      <point x="298" y="72"/>
    </contour>
  </outline>
</glyph>
<glyph name="equal" format="2">
  <advance width="722"/>
  <unicode hex="003D"/>
  <outline>
    <contour>
      <point x="128" y="214" type="line"/>
      <point x="113" y="92" type="line"/>
      <point x="629" y="92" type="line"/>
      <point x="644" y="214" type="line"/>
    </contour>
    <contour>
      <point x="152" y="412" type="line"/>
      <point x="137" y="290" type="line"/>
      <point x="653" y="290" type="line"/>
      <point x="668" y="412" type="line"/>
    </contour>
  </outline>
</glyph>
<glyph name="question" format="2">
  <advance width="444"/>
  <unicode hex="003F"/>
  <outline>
    <contour>
      <point x="109" y="266" type="curve" smooth="yes"/>
      <point x="97" y="167" type="line"/>
      <point x="222" y="167" type="line"/>
      <point x="232" y="247" type="line" smooth="yes"/>
      <point x="240" y="309"/>
      <point x="309" y="346"/>
      <point x="341" y="368" type="curve" smooth="yes"/>
      <point x="418" y="421"/>
      <point x="465" y="482"/>
      <point x="465" y="568" type="curve" smooth="yes"/>
      <point x="465" y="667"/>
      <point x="391" y="747"/>
      <point x="288" y="747" type="curve" smooth="yes"/>
      <point x="120" y="747"/>
      <point x="75" y="627"/>
      <point x="54" y="579" type="curve"/>
      <point x="88" y="565"/>
      <point x="124" y="551"/>
      <point x="158" y="538" type="curve"/>
      <point x="158" y="538" type="line"/>
      <point x="184" y="599"/>
      <point x="200" y="625"/>
      <point x="273" y="625" type="curve" smooth="yes"/>
      <point x="314" y="625"/>
      <point x="336" y="596"/>
      <point x="336" y="558" type="curve" smooth="yes"/>
      <point x="336" y="506"/>
      <point x="304" y="460"/>
      <point x="241" y="417" type="curve" smooth="yes"/>
      <point x="176" y="373"/>
      <point x="120" y="355"/>
    </contour>
    <contour>
      <point x="135" y="-14" type="curve" smooth="yes"/>
      <point x="135" y="-14" type="line" smooth="yes"/>
      <point x="172" y="-14"/>
      <point x="214" y="17"/>
      <point x="214" y="64" type="curve" smooth="yes"/>
      <point x="214" y="101"/>
      <point x="184" y="130"/>
      <point x="153" y="130" type="curve" smooth="yes"/>
      <point x="114" y="130"/>
      <point x="71" y="95"/>
      <point x="71" y="50" type="curve" smooth="yes"/>
      <point x="71" y="11"/>
      <point x="102" y="-14"/>
    </contour>
  </outline>
</glyph>
<glyph name="at" format="2">
  <advance width="1052"/>
  <unicode hex="0040"/>
  <outline>
    <contour>
      <point x="459" y="-226" type="curve" smooth="yes"/>
      <point x="551" y="-226"/>
      <point x="673" y="-197"/>
      <point x="754" y="-131" type="curve"/>
      <point x="698" y="-52" type="line"/>
      <point x="633" y="-93"/>
      <point x="556" y="-118"/>
      <point x="480" y="-118" type="curve" smooth="yes"/>
      <point x="311" y="-118"/>
      <point x="163" y="-33"/>
      <point x="163" y="182" type="curve" smooth="yes"/>
      <point x="163" y="294"/>
      <point x="236" y="571"/>
      <point x="594" y="571" type="curve" smooth="yes"/>
      <point x="799" y="571"/>
      <point x="893" y="451"/>
      <point x="893" y="312" type="curve" smooth="yes"/>
      <point x="893" y="196"/>
      <point x="837" y="120"/>
      <point x="788" y="120" type="curve" smooth="yes"/>
      <point x="765" y="120"/>
      <point x="756" y="137"/>
      <point x="761" y="172" type="curve" smooth="yes"/>
      <point x="798" y="437" type="line"/>
      <point x="664" y="437" type="line"/>
      <point x="648" y="390" type="line"/>
      <point x="624" y="425"/>
      <point x="593" y="459"/>
      <point x="506" y="459" type="curve" smooth="yes"/>
      <point x="354" y="459"/>
      <point x="252" y="343"/>
      <point x="252" y="191" type="curve" smooth="yes"/>
      <point x="252" y="61"/>
      <point x="336" y="-12"/>
      <point x="447" y="-12" type="curve" smooth="yes"/>
      <point x="528" y="-12"/>
      <point x="610" y="48"/>
      <point x="640" y="90" type="curve"/>
      <point x="616" y="152" type="line"/>
      <point x="601" y="60"/>
      <point x="666" y="-8"/>
      <point x="752" y="-8" type="curve"/>
      <point x="914" y="-8"/>
      <point x="1022" y="139"/>
      <point x="1022" y="312" type="curve" smooth="yes"/>
      <point x="1022" y="516"/>
      <point x="880" y="680"/>
      <point x="614" y="680" type="curve" smooth="yes"/>
      <point x="198" y="680"/>
      <point x="37" y="401"/>
      <point x="37" y="178" type="curve" smooth="yes"/>
      <point x="37" y="-100"/>
      <point x="240" y="-226"/>
    </contour>
    <contour>
      <point x="503" y="102" type="curve"/>
      <point x="443" y="102"/>
      <point x="401" y="149"/>
      <point x="401" y="210" type="curve" smooth="yes"/>
      <point x="401" y="279"/>
      <point x="455" y="345"/>
      <point x="530" y="345" type="curve"/>
      <point x="583" y="345"/>
      <point x="621" y="318"/>
      <point x="631" y="275" type="curve"/>
      <point x="616" y="168" type="line"/>
      <point x="587" y="124"/>
      <point x="556" y="102"/>
    </contour>
  </outline>
</glyph>
<glyph name="A" format="2">
  <advance width="696"/>
  <unicode hex="0041"/>
  <anchor x="333" y="0" name="bottom"/>
  <anchor x="627" y="10" name="ogonek"/>
  <anchor x="408" y="745" name="top"/>
  <outline>
    <contour>
      <point x="124" y="0" type="line"/>
      <point x="453" y="610" type="line"/>
      <point x="339" y="538" type="line"/>
      <point x="485" y="0" type="line"/>
      <point x="653" y="0" type="line"/>
      <point x="415" y="765" type="line"/>
      <point x="407" y="765" type="line"/>
      <point x="-19" y="0" type="line"/>
    </contour>
    <contour>
      <point x="241" y="266" type="line"/>
      <point x="181" y="144" type="line"/>
      <point x="498" y="144" type="line"/>
      <point x="462" y="266" type="line"/>
    </contour>
  </outline>
</glyph>
<glyph name="C" format="2">
  <advance width="700"/>
  <unicode hex="0043"/>
  <anchor x="433" y="0" name="bottom"/>
  <anchor x="449" y="728" name="top"/>
  <outline>
    <contour>
      <point x="628" y="43" type="curve"/>
      <point x="584" y="177" type="line"/>
      <point x="561" y="163"/>
      <point x="511" y="128"/>
      <point x="426" y="128" type="curve" smooth="yes"/>
      <point x="297" y="128"/>
      <point x="220" y="215"/>
      <point x="220" y="340" type="curve" smooth="yes"/>
      <point x="220" y="500"/>
      <point x="318" y="609"/>
      <point x="462" y="600" type="curve"/>
      <point x="533" y="595"/>
      <point x="586" y="557"/>
      <point x="615" y="530" type="curve"/>
      <point x="689" y="663" type="line"/>
      <point x="641" y="699"/>
      <point x="558" y="741"/>
      <point x="448" y="741" type="curve" smooth="yes"/>
      <point x="183" y="741"/>
      <point x="68" y="539"/>
      <point x="68" y="329" type="curve" smooth="yes"/>
      <point x="68" y="67"/>
      <point x="267" y="-13"/>
      <point x="420" y="-13" type="curve" smooth="yes"/>
      <point x="520" y="-13"/>
      <point x="603" y="26"/>
    </contour>
  </outline>
</glyph>
<glyph name="D" format="2">
  <advance width="767"/>
  <unicode hex="0044"/>
  <anchor x="356" y="0" name="bottom"/>
  <anchor x="191" y="350" name="center"/>
  <anchor x="396" y="700" name="top"/>
  <outline>
    <contour>
      <point x="65" y="0" type="line"/>
      <point x="353" y="0" type="line"/>
      <point x="538" y="0"/>
      <point x="710" y="136"/>
      <point x="734" y="355" type="curve"/>
      <point x="754" y="540"/>
      <point x="679" y="736"/>
      <point x="415" y="736" type="curve"/>
      <point x="155" y="736" type="line"/>
    </contour>
    <contour>
      <point x="227" y="140" type="line"/>
      <point x="283" y="597" type="line"/>
      <point x="401" y="597" type="line"/>
      <point x="468" y="597"/>
      <point x="609" y="557"/>
      <point x="586" y="365" type="curve"/>
      <point x="570" y="217"/>
      <point x="475" y="140"/>
      <point x="345" y="140" type="curve"/>
    </contour>
  </outline>
</glyph>
<glyph name="F" format="2">
  <advance width="600"/>
  <unicode hex="0046"/>
  <anchor x="275" y="0" name="bottom"/>
  <anchor x="360" y="700" name="top"/>
  <outline>
    <contour>
      <point x="155" y="736" type="line"/>
      <point x="65" y="0" type="line"/>
      <point x="215" y="0" type="line"/>
      <point x="250" y="289" type="line"/>
      <point x="518" y="289" type="line"/>
      <point x="536" y="428" type="line"/>
      <point x="268" y="428" type="line"/>
      <point x="288" y="598" type="line"/>
      <point x="598" y="598" type="line"/>
      <point x="615" y="736" type="line"/>
    </contour>
  </outline>
</glyph>
<glyph name="G" format="2">
  <advance width="772"/>
  <unicode hex="0047"/>
  <anchor x="396" y="0" name="bottom"/>
  <anchor x="479" y="740" name="top"/>
  <outline>
    <contour>
      <point x="678" y="56" type="curve"/>
      <point x="717" y="382" type="line"/>
      <point x="442" y="382" type="line"/>
      <point x="425" y="243" type="line"/>
      <point x="552" y="243" type="line"/>
      <point x="541" y="147" type="line"/>
      <point x="519" y="136"/>
      <point x="491" y="132"/>
      <point x="459" y="133" type="curve" smooth="yes"/>
      <point x="404" y="133"/>
      <point x="219" y="157"/>
      <point x="219" y="333" type="curve" smooth="yes"/>
      <point x="219" y="437"/>
      <point x="271" y="590"/>
      <point x="464" y="593" type="curve" smooth="yes"/>
      <point x="525" y="594"/>
      <point x="603" y="573"/>
      <point x="655" y="539" type="curve"/>
      <point x="719" y="671" type="line"/>
      <point x="646" y="718"/>
      <point x="548" y="738"/>
      <point x="466" y="739" type="curve" smooth="yes"/>
      <point x="174" y="741"/>
      <point x="67" y="498"/>
      <point x="67" y="328" type="curve" smooth="yes"/>
      <point x="67" y="32"/>
      <point x="361" y="-11"/>
      <point x="432" y="-11" type="curve" smooth="yes"/>
      <point x="521" y="-12"/>
      <point x="640" y="23"/>
    </contour>
  </outline>
</glyph>
<glyph name="H" format="2">
  <advance width="810"/>
  <unicode hex="0048"/>
  <anchor x="373" y="0" name="bottom"/>
  <anchor x="413" y="360" name="center"/>
  <anchor x="453" y="740" name="top"/>
  <anchor x="-58" y="700" name="topleft"/>
  <outline>
    <contour>
      <point x="774" y="736" type="line"/>
      <point x="624" y="736" type="line"/>
      <point x="588" y="441" type="line"/>
      <point x="269" y="441" type="line"/>
      <point x="305" y="736" type="line"/>
      <point x="155" y="736" type="line"/>
      <point x="65" y="0" type="line"/>
      <point x="215" y="0" type="line"/>
      <point x="252" y="299" type="line"/>
      <point x="571" y="299" type="line"/>
      <point x="534" y="0" type="line"/>
      <point x="684" y="0" type="line"/>
    </contour>
  </outline>
</glyph>
<glyph name="I" format="2">
  <advance width="341"/>
  <unicode hex="0049"/>
  <anchor x="137" y="0" name="bottom"/>
  <anchor x="215" y="0" name="ogonek"/>
  <anchor x="227" y="730" name="top"/>
  <anchor x="-8" y="700" name="topleft"/>
  <outline>
    <contour>
      <point x="155" y="736" type="line"/>
      <point x="65" y="0" type="line"/>
      <point x="215" y="0" type="line"/>
      <point x="305" y="736" type="line"/>
    </contour>
  </outline>
</glyph>
<glyph name="J" format="2">
  <advance width="404"/>
  <unicode hex="004A"/>
  <anchor x="175" y="0" name="bottom"/>
  <anchor x="286" y="736" name="top"/>
  <outline>
    <contour>
      <point x="297" y="155" type="curve" smooth="yes"/>
      <point x="368" y="736" type="line"/>
      <point x="222" y="736" type="line"/>
      <point x="152" y="158" type="line" smooth="yes"/>
      <point x="137" y="38"/>
      <point x="68" y="-7"/>
      <point x="-23" y="-12" type="curve"/>
      <point x="-40" y="-153" type="line"/>
      <point x="-40" y="-153" type="line"/>
      <point x="137" y="-148"/>
      <point x="274" y="-37"/>
    </contour>
  </outline>
</glyph>
<glyph name="K" format="2">
  <advance width="701"/>
  <unicode hex="004B"/>
  <anchor x="324" y="0" name="bottom"/>
  <anchor x="415" y="736" name="top"/>
  <outline>
    <contour>
      <point x="270" y="474" type="line"/>
      <point x="302" y="736" type="line"/>
      <point x="155" y="736" type="line"/>
      <point x="65" y="0" type="line"/>
      <point x="212" y="0" type="line"/>
      <point x="246" y="278" type="line"/>
      <point x="286" y="314" type="line"/>
      <point x="475" y="0" type="line"/>
      <point x="659" y="0" type="line"/>
      <point x="404" y="406" type="line"/>
      <point x="748" y="736" type="line"/>
      <point x="560" y="736" type="line"/>
      <point x="287" y="465" type="line"/>
      <point x="261" y="437" type="line"/>
    </contour>
  </outline>
</glyph>
<glyph name="L" format="2">
  <advance width="638"/>
  <unicode hex="004C"/>
  <anchor x="298" y="0" name="bottom"/>
  <anchor x="343" y="368" name="center"/>
  <anchor x="227" y="756" name="top"/>
  <anchor x="671" y="736" name="topright"/>
  <outline>
    <contour>
      <point x="155" y="736" type="line"/>
      <point x="65" y="0" type="line"/>
      <point x="556" y="0" type="line"/>
      <point x="573" y="140" type="line"/>
      <point x="227" y="140" type="line"/>
      <point x="300" y="736" type="line"/>
    </contour>
  </outline>
</glyph>
<glyph name="M" format="2">
  <advance width="948"/>
  <unicode hex="004D"/>
  <anchor x="461" y="0" name="bottom"/>
  <anchor x="501" y="700" name="top"/>
  <outline>
    <contour>
      <point x="204" y="0" type="line"/>
      <point x="257" y="433" type="line"/>
      <point x="224" y="364" type="line"/>
      <point x="436" y="10" type="line"/>
      <point x="438" y="10" type="line"/>
      <point x="731" y="364" type="line"/>
      <point x="731" y="439" type="line"/>
      <point x="677" y="0" type="line"/>
      <point x="822" y="0" type="line"/>
      <point x="916" y="766" type="line"/>
      <point x="914" y="766" type="line"/>
      <point x="437" y="200" type="line"/>
      <point x="497" y="186" type="line"/>
      <point x="159" y="766" type="line"/>
      <point x="158" y="766" type="line"/>
      <point x="64" y="0" type="line"/>
    </contour>
  </outline>
</glyph>
<glyph name="N" format="2">
  <advance width="853"/>
  <unicode hex="004E"/>
  <anchor x="411" y="0" name="bottom"/>
  <anchor x="473" y="700" name="top"/>
  <outline>
    <contour>
      <point x="723" y="-30" type="line"/>
      <point x="817" y="736" type="line"/>
      <point x="671" y="736" type="line"/>
      <point x="618" y="277" type="line"/>
      <point x="648" y="263" type="line"/>
      <point x="164" y="765" type="line"/>
      <point x="158" y="765" type="line"/>
      <point x="64" y="0" type="line"/>
      <point x="211" y="0" type="line"/>
      <point x="263" y="450" type="line"/>
      <point x="223" y="474" type="line"/>
      <point x="719" y="-30" type="line"/>
    </contour>
  </outline>
</glyph>
<glyph name="O" format="2">
  <advance width="852"/>
  <unicode hex="004F"/>
  <anchor x="463" y="0" name="bottom"/>
  <anchor x="463" y="350" name="center"/>
  <anchor x="610" y="10" name="ogonek"/>
  <anchor x="463" y="730" name="top"/>
  <anchor x="40" y="700" name="topleft"/>
  <anchor x="715" y="586" name="topright"/>
  <outline>
    <contour>
      <point x="421" y="-7" type="curve" smooth="yes"/>
      <point x="691" y="-7"/>
      <point x="821" y="216"/>
      <point x="821" y="393" type="curve" smooth="yes"/>
      <point x="821" y="639"/>
      <point x="636" y="743"/>
      <point x="468" y="743" type="curve" smooth="yes"/>
      <point x="198" y="743"/>
      <point x="68" y="520"/>
      <point x="68" y="343" type="curve" smooth="yes"/>
      <point x="68" y="97"/>
      <point x="253" y="-7"/>
    </contour>
    <contour>
      <point x="423" y="133" type="curve" smooth="yes"/>
      <point x="301" y="133"/>
      <point x="218" y="235"/>
      <point x="218" y="351" type="curve" smooth="yes"/>
      <point x="218" y="460"/>
      <point x="280" y="603"/>
      <point x="462" y="603" type="curve" smooth="yes"/>
      <point x="584" y="603"/>
      <point x="671" y="501"/>
      <point x="671" y="385" type="curve" smooth="yes"/>
      <point x="671" y="276"/>
      <point x="605" y="133"/>
    </contour>
  </outline>
</glyph>
<glyph name="P" format="2">
  <advance width="618"/>
  <unicode hex="0050"/>
  <outline>
    <contour>
      <point x="378" y="736" type="curve" smooth="yes"/>
      <point x="155" y="736" type="line"/>
      <point x="65" y="0" type="line"/>
      <point x="215" y="0" type="line"/>
      <point x="244" y="233" type="line"/>
      <point x="343" y="233" type="line" smooth="yes"/>
      <point x="557" y="233"/>
      <point x="633" y="392"/>
      <point x="633" y="519" type="curve" smooth="yes"/>
      <point x="633" y="651"/>
      <point x="545" y="736"/>
    </contour>
    <contour>
      <point x="354" y="374" type="curve" smooth="yes"/>
      <point x="261" y="374" type="line"/>
      <point x="288" y="596" type="line"/>
      <point x="382" y="596" type="line" smooth="yes"/>
      <point x="468" y="596"/>
      <point x="481" y="531"/>
      <point x="481" y="498" type="curve" smooth="yes"/>
      <point x="481" y="455"/>
      <point x="449" y="374"/>
    </contour>
  </outline>
</glyph>
<glyph name="Q" format="2">
  <advance width="945"/>
  <unicode hex="0051"/>
  <outline>
    <contour>
      <point x="663" y="105" type="line"/>
      <point x="478" y="0" type="line"/>
      <point x="888" y="0" type="line"/>
      <point x="905" y="142" type="line"/>
    </contour>
    <contour>
      <point x="462" y="-7" type="curve" smooth="yes"/>
      <point x="732" y="-7"/>
      <point x="862" y="216"/>
      <point x="862" y="393" type="curve" smooth="yes"/>
      <point x="862" y="639"/>
      <point x="677" y="743"/>
      <point x="509" y="743" type="curve" smooth="yes"/>
      <point x="239" y="743"/>
      <point x="109" y="520"/>
      <point x="109" y="343" type="curve" smooth="yes"/>
      <point x="109" y="97"/>
      <point x="294" y="-7"/>
    </contour>
    <contour>
      <point x="464" y="133" type="curve" smooth="yes"/>
      <point x="342" y="133"/>
      <point x="259" y="235"/>
      <point x="259" y="351" type="curve" smooth="yes"/>
      <point x="259" y="460"/>
      <point x="321" y="603"/>
      <point x="503" y="603" type="curve" smooth="yes"/>
      <point x="625" y="603"/>
      <point x="712" y="501"/>
      <point x="712" y="385" type="curve" smooth="yes"/>
      <point x="712" y="276"/>
      <point x="646" y="133"/>
    </contour>
  </outline>
</glyph>
<glyph name="R" format="2">
  <advance width="687"/>
  <unicode hex="0052"/>
  <anchor x="335" y="0" name="bottom"/>
  <anchor x="375" y="730" name="top"/>
  <outline>
    <contour>
      <point x="378" y="736" type="curve"/>
      <point x="155" y="736" type="line"/>
      <point x="65" y="0" type="line"/>
      <point x="210" y="0" type="line"/>
      <point x="239" y="234" type="line"/>
      <point x="343" y="234" type="line"/>
      <point x="539" y="234"/>
      <point x="621" y="367"/>
      <point x="636" y="488" type="curve"/>
      <point x="654" y="639"/>
      <point x="563" y="736"/>
    </contour>
    <contour>
      <point x="359" y="374" type="curve"/>
      <point x="256" y="374" type="line"/>
      <point x="283" y="596" type="line"/>
      <point x="387" y="596" type="line"/>
      <point x="489" y="596"/>
      <point x="489" y="514"/>
      <point x="485" y="483" type="curve"/>
      <point x="480" y="441"/>
      <point x="447" y="374"/>
    </contour>
    <contour>
      <point x="484" y="284" type="line"/>
      <point x="310" y="280" type="line"/>
      <point x="462" y="0" type="line"/>
      <point x="631" y="0" type="line"/>
    </contour>
  </outline>
</glyph>
<glyph name="S" format="2">
  <advance width="587"/>
  <unicode hex="0053"/>
  <anchor x="295" y="0" name="bottom"/>
  <anchor x="335" y="700" name="top"/>
  <outline>
    <contour>
      <point x="531" y="545" type="curve"/>
      <point x="600" y="652" type="line"/>
      <point x="545" y="694"/>
      <point x="483" y="730"/>
      <point x="365" y="737" type="curve"/>
      <point x="227" y="739"/>
      <point x="125" y="664"/>
      <point x="110" y="536" type="curve"/>
      <point x="92" y="396"/>
      <point x="205" y="343"/>
      <point x="290" y="303" type="curve" smooth="yes"/>
      <point x="345" y="277"/>
      <point x="390" y="242"/>
      <point x="385" y="198" type="curve"/>
      <point x="377" y="134"/>
      <point x="313" y="119"/>
      <point x="261" y="122" type="curve"/>
      <point x="209" y="126"/>
      <point x="140" y="156"/>
      <point x="94" y="197" type="curve"/>
      <point x="16" y="88" type="line"/>
      <point x="87" y="29"/>
      <point x="174" y="-1"/>
      <point x="258" y="-6" type="curve"/>
      <point x="422" y="-16"/>
      <point x="522" y="77"/>
      <point x="536" y="189" type="curve"/>
      <point x="553" y="328"/>
      <point x="470" y="381"/>
      <point x="388" y="418" type="curve" smooth="yes"/>
      <point x="320" y="448"/>
      <point x="254" y="486"/>
      <point x="261" y="538" type="curve"/>
      <point x="267" y="589"/>
      <point x="308" y="611"/>
      <point x="371" y="608" type="curve"/>
      <point x="422" y="605"/>
      <point x="479" y="579"/>
    </contour>
  </outline>
</glyph>
<glyph name="T" format="2">
  <advance width="586"/>
  <unicode hex="0054"/>
  <anchor x="259" y="0" name="bottom"/>
  <anchor x="305" y="350" name="center"/>
  <anchor x="349" y="700" name="top"/>
  <outline>
    <contour>
      <point x="105" y="736" type="line"/>
      <point x="87" y="593" type="line"/>
      <point x="257" y="593" type="line"/>
      <point x="184" y="0" type="line"/>
      <point x="334" y="0" type="line"/>
      <point x="407" y="593" type="line"/>
      <point x="583" y="593" type="line"/>
      <point x="601" y="736" type="line"/>
    </contour>
  </outline>
</glyph>
<glyph name="U" format="2">
  <advance width="787"/>
  <unicode hex="0055"/>
  <anchor x="363" y="0" name="bottom"/>
  <anchor x="528" y="10" name="ogonek"/>
  <anchor x="456" y="730" name="top"/>
  <anchor x="733" y="630" name="topright"/>
  <outline>
    <contour>
      <point x="248" y="272" type="curve" smooth="yes"/>
      <point x="305" y="736" type="line"/>
      <point x="155" y="736" type="line"/>
      <point x="98" y="269" type="line" smooth="yes"/>
      <point x="78" y="107"/>
      <point x="196" y="-8"/>
      <point x="361" y="-8" type="curve" smooth="yes"/>
      <point x="361" y="-8" type="line" smooth="yes"/>
      <point x="527" y="-8"/>
      <point x="674" y="107"/>
      <point x="694" y="269" type="curve" smooth="yes"/>
      <point x="751" y="736" type="line"/>
      <point x="601" y="736" type="line"/>
      <point x="544" y="272" type="line" smooth="yes"/>
      <point x="535" y="202"/>
      <point x="460" y="133"/>
      <point x="378" y="133" type="curve" smooth="yes"/>
      <point x="296" y="133"/>
      <point x="239" y="202"/>
    </contour>
  </outline>
</glyph>
<glyph name="V" format="2">
  <advance width="744"/>
  <unicode hex="0056"/>
  <anchor x="346" y="0" name="bottom"/>
  <anchor x="346" y="700" name="top"/>
  <outline>
    <contour>
      <point x="340" y="-28" type="line"/>
      <point x="345" y="-28" type="line"/>
      <point x="772" y="736" type="line"/>
      <point x="600" y="736" type="line"/>
      <point x="342" y="223" type="line"/>
      <point x="424" y="206" type="line"/>
      <point x="274" y="736" type="line"/>
      <point x="100" y="736" type="line"/>
    </contour>
  </outline>
</glyph>
<glyph name="W" format="2">
  <advance width="1031"/>
  <unicode hex="0057"/>
  <anchor x="509" y="0" name="bottom"/>
  <anchor x="600" y="736" name="top"/>
  <outline>
    <contour>
      <point x="99" y="731" type="line"/>
      <point x="301" y="-34" type="line"/>
      <point x="569" y="421" type="line"/>
      <point x="526" y="620" type="line"/>
      <point x="347" y="279" type="line"/>
      <point x="369" y="269" type="line"/>
      <point x="269" y="731" type="line"/>
    </contour>
    <contour>
      <point x="468" y="731" type="line"/>
      <point x="680" y="-32" type="line"/>
      <point x="1058" y="731" type="line"/>
      <point x="902" y="731" type="line"/>
      <point x="713" y="288" type="line"/>
      <point x="738" y="284" type="line"/>
      <point x="612" y="731" type="line"/>
    </contour>
  </outline>
</glyph>
<glyph name="Y" format="2">
  <advance width="722"/>
  <unicode hex="0059"/>
  <anchor x="317" y="0" name="bottom"/>
  <anchor x="408" y="736" name="top"/>
  <anchor x="103" y="736" name="topleft"/>
  <outline>
    <contour>
      <point x="288" y="229" type="line"/>
      <point x="260" y="0" type="line"/>
      <point x="405" y="0" type="line"/>
      <point x="433" y="229" type="line"/>
      <point x="771" y="736" type="line"/>
      <point x="592" y="736" type="line"/>
      <point x="358" y="351" type="line"/>
      <point x="401" y="354" type="line"/>
      <point x="258" y="736" type="line"/>
      <point x="79" y="736" type="line"/>
    </contour>
  </outline>
</glyph>
<glyph name="Z" format="2">
  <advance width="676"/>
  <unicode hex="005A"/>
  <anchor x="314" y="0" name="bottom"/>
  <anchor x="435" y="736" name="top"/>
  <outline>
    <contour>
      <point x="-2" y="0" type="line"/>
      <point x="624" y="0" type="line"/>
      <point x="641" y="140" type="line"/>
      <point x="246" y="140" type="line"/>
      <point x="259" y="124" type="line"/>
      <point x="715" y="736" type="line"/>
      <point x="306" y="736" type="line"/>
      <point x="282" y="736"/>
      <point x="276" y="742"/>
      <point x="277" y="759" type="curve" smooth="yes"/>
      <point x="278" y="773" type="line"/>
      <point x="145" y="773" type="line"/>
      <point x="132" y="668" type="line" smooth="yes"/>
      <point x="127" y="627"/>
      <point x="178" y="596"/>
      <point x="221" y="596" type="curve" smooth="yes"/>
      <point x="486" y="596" type="line"/>
      <point x="469" y="636" type="line"/>
    </contour>
  </outline>
</glyph>
<glyph name="bracketleft" format="2">
  <advance width="350"/>
  <unicode hex="005B"/>
  <outline>
    <contour>
      <point x="158" y="761" type="line"/>
      <point x="46" y="-152" type="line"/>
      <point x="259" y="-152" type="line"/>
      <point x="274" y="-31" type="line"/>
      <point x="185" y="-31" type="line"/>
      <point x="267" y="639" type="line"/>
      <point x="356" y="639" type="line"/>
      <point x="371" y="761" type="line"/>
    </contour>
  </outline>
</glyph>
<glyph name="backslash" format="2">
  <advance width="430"/>
  <unicode hex="005C"/>
  <outline>
    <contour>
      <point x="224" y="751" type="curve"/>
      <point x="82" y="751" type="line"/>
      <point x="145" y="494"/>
      <point x="208" y="238"/>
      <point x="271" y="-19" type="curve"/>
      <point x="413" y="-19" type="line"/>
      <point x="350" y="238"/>
      <point x="287" y="494"/>
    </contour>
  </outline>
</glyph>
<glyph name="bracketright" format="2">
  <advance width="357"/>
  <unicode hex="005D"/>
  <outline>
    <contour>
      <point x="112" y="761" type="line"/>
      <point x="97" y="639" type="line"/>
      <point x="186" y="639" type="line"/>
      <point x="104" y="-31" type="line"/>
      <point x="15" y="-31" type="line"/>
      <point x="0" y="-152" type="line"/>
      <point x="213" y="-152" type="line"/>
      <point x="325" y="761" type="line"/>
    </contour>
  </outline>
</glyph>
<glyph name="asciicircum" format="2">
  <advance width="479"/>
  <unicode hex="005E"/>
  <outline>
    <contour>
      <point x="334" y="489" type="curve"/>
      <point x="419" y="489" type="line"/>
      <point x="385" y="550"/>
      <point x="352" y="612"/>
      <point x="319" y="673" type="curve"/>
      <point x="319" y="673" type="line"/>
      <point x="271" y="612"/>
      <point x="222" y="550"/>
      <point x="174" y="489" type="curve"/>
      <point x="259" y="489" type="line"/>
      <point x="259" y="489"/>
      <point x="302" y="534"/>
      <point x="302" y="534" type="curve"/>
      <point x="302" y="534"/>
      <point x="334" y="489"/>
    </contour>
  </outline>
</glyph>
<glyph name="underscore" format="2">
  <advance width="612"/>
  <unicode hex="005F"/>
  <outline>
    <contour>
      <point x="117" y="121" type="line"/>
      <point x="102" y="0" type="line"/>
      <point x="510" y="0" type="line"/>
      <point x="525" y="121" type="line"/>
    </contour>
  </outline>
</glyph>
<glyph name="a" format="2">
  <advance width="618"/>
  <unicode hex="0061"/>
  <anchor x="297" y="-20" name="bottom"/>
  <anchor x="531" y="10" name="ogonek"/>
  <anchor x="357" y="470" name="top"/>
  <outline>
    <contour>
      <point x="216" y="-10" type="curve"/>
      <point x="334" y="-12"/>
      <point x="393" y="65"/>
      <point x="398" y="65" type="curve"/>
      <point x="390" y="95" type="line"/>
      <point x="379" y="0" type="line"/>
      <point x="519" y="0" type="line"/>
      <point x="572" y="437" type="line"/>
      <point x="442" y="437" type="line"/>
      <point x="420" y="369" type="line"/>
      <point x="429" y="390" type="line"/>
      <point x="405" y="425"/>
      <point x="371" y="459"/>
      <point x="284" y="459" type="curve"/>
      <point x="140" y="459"/>
      <point x="38" y="333"/>
      <point x="38" y="203" type="curve" smooth="yes"/>
      <point x="38" y="66"/>
      <point x="130" y="-12"/>
    </contour>
    <contour>
      <point x="295" y="102" type="curve" smooth="yes"/>
      <point x="228" y="102"/>
      <point x="183" y="147"/>
      <point x="183" y="220" type="curve" smooth="yes"/>
      <point x="183" y="273"/>
      <point x="219" y="345"/>
      <point x="310" y="345" type="curve"/>
      <point x="363" y="345"/>
      <point x="402" y="318"/>
      <point x="412" y="275" type="curve"/>
      <point x="399" y="168" type="line"/>
      <point x="372" y="124"/>
      <point x="335" y="102"/>
    </contour>
  </outline>
</glyph>
<glyph name="b" format="2">
  <advance width="626"/>
  <unicode hex="0062"/>
  <anchor x="304" y="0" name="bottom"/>
  <anchor x="365" y="500" name="top"/>
  <outline>
    <contour>
      <point x="331" y="-12" type="curve"/>
      <point x="483" y="-12"/>
      <point x="589" y="107"/>
      <point x="589" y="238" type="curve" smooth="yes"/>
      <point x="589" y="390"/>
      <point x="492" y="459"/>
      <point x="386" y="459" type="curve"/>
      <point x="321" y="459"/>
      <point x="268" y="436"/>
      <point x="234" y="407" type="curve"/>
      <point x="229" y="362" type="line"/>
      <point x="281" y="789" type="line"/>
      <point x="142" y="789" type="line"/>
      <point x="45" y="0" type="line"/>
      <point x="185" y="0" type="line"/>
      <point x="196" y="85" type="line"/>
      <point x="181" y="55" type="line"/>
      <point x="213" y="15"/>
      <point x="257" y="-12"/>
    </contour>
    <contour>
      <point x="314" y="106" type="curve"/>
      <point x="259" y="106"/>
      <point x="226" y="134"/>
      <point x="207" y="178" type="curve"/>
      <point x="220" y="279" type="line"/>
      <point x="242" y="322"/>
      <point x="282" y="349"/>
      <point x="335" y="349" type="curve"/>
      <point x="401" y="349"/>
      <point x="446" y="307"/>
      <point x="446" y="229" type="curve" smooth="yes"/>
      <point x="446" y="178"/>
      <point x="406" y="106"/>
    </contour>
  </outline>
</glyph>
<glyph name="c" format="2">
  <advance width="485"/>
  <unicode hex="0063"/>
  <anchor x="204" y="0" name="bottom"/>
  <anchor x="276" y="450" name="top"/>
  <outline>
    <contour>
      <point x="422" y="28" type="curve"/>
      <point x="363" y="120" type="line"/>
      <point x="344" y="107"/>
      <point x="321" y="100"/>
      <point x="294" y="100" type="curve" smooth="yes"/>
      <point x="222" y="100"/>
      <point x="178" y="147"/>
      <point x="178" y="207" type="curve" smooth="yes"/>
      <point x="178" y="281"/>
      <point x="232" y="332"/>
      <point x="291" y="332" type="curve" smooth="yes"/>
      <point x="339" y="332"/>
      <point x="372" y="310"/>
      <point x="390" y="293" type="curve"/>
      <point x="469" y="378" type="line"/>
      <point x="430" y="417"/>
      <point x="371" y="447"/>
      <point x="282" y="447" type="curve" smooth="yes"/>
      <point x="115" y="447"/>
      <point x="37" y="312"/>
      <point x="37" y="197" type="curve" smooth="yes"/>
      <point x="37" y="23"/>
      <point x="196" y="-13"/>
      <point x="269" y="-13" type="curve" smooth="yes"/>
      <point x="322" y="-13"/>
      <point x="382" y="2"/>
    </contour>
  </outline>
</glyph>
<glyph name="d" format="2">
  <advance width="626"/>
  <unicode hex="0064"/>
  <anchor x="327" y="0" name="bottom"/>
  <anchor x="327" y="250" name="center"/>
  <anchor x="327" y="500" name="top"/>
  <anchor x="664" y="500" name="topright"/>
  <outline>
    <contour>
      <point x="253" y="-12" type="curve"/>
      <point x="312" y="-12"/>
      <point x="356" y="17"/>
      <point x="405" y="55" type="curve"/>
      <point x="398" y="85" type="line"/>
      <point x="387" y="0" type="line"/>
      <point x="527" y="0" type="line"/>
      <point x="624" y="789" type="line"/>
      <point x="485" y="789" type="line"/>
      <point x="433" y="362" type="line"/>
      <point x="457" y="394" type="line"/>
      <point x="427" y="430"/>
      <point x="370" y="459"/>
      <point x="300" y="459" type="curve"/>
      <point x="128" y="459"/>
      <point x="38" y="322"/>
      <point x="38" y="200" type="curve" smooth="yes"/>
      <point x="38" y="85"/>
      <point x="128" y="-12"/>
    </contour>
    <contour>
      <point x="297" y="106" type="curve"/>
      <point x="227" y="106"/>
      <point x="182" y="151"/>
      <point x="182" y="221" type="curve" smooth="yes"/>
      <point x="182" y="300"/>
      <point x="235" y="349"/>
      <point x="314" y="349" type="curve"/>
      <point x="370" y="349"/>
      <point x="411" y="322"/>
      <point x="422" y="279" type="curve"/>
      <point x="409" y="172" type="line"/>
      <point x="379" y="128"/>
      <point x="340" y="106"/>
    </contour>
  </outline>
</glyph>
<glyph name="e" format="2">
  <advance width="555"/>
  <unicode hex="0065"/>
  <anchor x="263" y="-20" name="bottom"/>
  <anchor x="392" y="33" name="ogonek"/>
  <anchor x="301" y="480" name="top"/>
  <outline>
    <contour>
      <point x="293" y="107" type="curve" smooth="yes"/>
      <point x="245" y="107"/>
      <point x="179" y="131"/>
      <point x="179" y="231" type="curve" smooth="yes"/>
      <point x="179" y="289"/>
      <point x="211" y="348"/>
      <point x="293" y="348" type="curve" smooth="yes"/>
      <point x="334" y="348"/>
      <point x="368" y="323"/>
      <point x="379" y="278" type="curve"/>
      <point x="428" y="293" type="line"/>
      <point x="154" y="222" type="line"/>
      <point x="176" y="144" type="line"/>
      <point x="528" y="231" type="line"/>
      <point x="504" y="417"/>
      <point x="400" y="457"/>
      <point x="298" y="457" type="curve" smooth="yes"/>
      <point x="111" y="457"/>
      <point x="39" y="318"/>
      <point x="39" y="215" type="curve" smooth="yes"/>
      <point x="39" y="62"/>
      <point x="134" y="-11"/>
      <point x="278" y="-11" type="curve"/>
      <point x="323" y="-11"/>
      <point x="374" y="2"/>
      <point x="418" y="23" type="curve"/>
      <point x="369" y="131" type="line"/>
      <point x="343" y="117"/>
      <point x="319" y="107"/>
    </contour>
  </outline>
</glyph>
<glyph name="f" format="2">
  <advance width="436"/>
  <unicode hex="0066"/>
  <anchor x="201" y="0" name="bottom"/>
  <anchor x="201" y="500" name="top"/>
  <outline>
    <contour>
      <point x="84" y="0" type="line"/>
      <point x="224" y="0" type="line"/>
      <point x="262" y="315" type="line"/>
      <point x="394" y="315" type="line"/>
      <point x="410" y="439" type="line"/>
      <point x="278" y="439" type="line"/>
      <point x="296" y="587" type="line"/>
      <point x="303" y="645"/>
      <point x="334" y="671"/>
      <point x="374" y="671" type="curve"/>
      <point x="390" y="671"/>
      <point x="408" y="666"/>
      <point x="420" y="649" type="curve"/>
      <point x="492" y="750" type="line"/>
      <point x="460" y="775"/>
      <point x="410" y="786"/>
      <point x="373" y="786" type="curve"/>
      <point x="248" y="786"/>
      <point x="170" y="705"/>
      <point x="156" y="591" type="curve"/>
      <point x="138" y="439" type="line"/>
      <point x="64" y="439" type="line"/>
      <point x="48" y="315" type="line"/>
      <point x="122" y="315" type="line"/>
    </contour>
  </outline>
</glyph>
<glyph name="g" format="2">
  <advance width="636"/>
  <unicode hex="0067"/>
  <anchor x="290" y="0" name="bottom"/>
  <anchor x="340" y="500" name="top"/>
  <outline>
    <contour>
      <point x="267" y="-220" type="curve"/>
      <point x="400" y="-220"/>
      <point x="519" y="-151"/>
      <point x="533" y="-23" type="curve"/>
      <point x="591" y="437" type="line"/>
      <point x="462" y="437" type="line"/>
      <point x="438" y="381" type="line"/>
      <point x="449" y="402" type="line"/>
      <point x="425" y="434"/>
      <point x="371" y="459"/>
      <point x="294" y="459" type="curve"/>
      <point x="121" y="459"/>
      <point x="39" y="315"/>
      <point x="39" y="217" type="curve" smooth="yes"/>
      <point x="39" y="69"/>
      <point x="132" y="-12"/>
      <point x="253" y="-12" type="curve"/>
      <point x="335" y="-12"/>
      <point x="389" y="28"/>
      <point x="413" y="73" type="curve"/>
      <point x="409" y="98" type="line"/>
      <point x="398" y="2" type="line"/>
      <point x="391" y="-64"/>
      <point x="337" y="-98"/>
      <point x="280" y="-98" type="curve"/>
      <point x="203" y="-98"/>
      <point x="164" y="-66"/>
      <point x="134" y="-38" type="curve"/>
      <point x="40" y="-134" type="line"/>
      <point x="83" y="-170"/>
      <point x="138" y="-220"/>
    </contour>
    <contour>
      <point x="182" y="270"/>
      <point x="220" y="345"/>
      <point x="319" y="345" type="curve"/>
      <point x="376" y="345"/>
      <point x="417" y="318"/>
      <point x="431" y="275" type="curve"/>
      <point x="418" y="168" type="line"/>
      <point x="388" y="124"/>
      <point x="346" y="102"/>
      <point x="302" y="102" type="curve"/>
      <point x="227" y="102"/>
      <point x="182" y="143"/>
      <point x="182" y="217" type="curve" smooth="yes"/>
    </contour>
  </outline>
</glyph>
<glyph name="h" format="2">
  <advance width="595"/>
  <unicode hex="0068"/>
  <anchor x="286" y="0" name="bottom"/>
  <anchor x="186" y="626" name="center"/>
  <anchor x="200" y="745" name="top"/>
  <outline>
    <contour>
      <point x="224" y="366" type="curve"/>
      <point x="225" y="341" type="line"/>
      <point x="279" y="789" type="line"/>
      <point x="142" y="789" type="line"/>
      <point x="46" y="0" type="line"/>
      <point x="186" y="0" type="line"/>
      <point x="208" y="178" type="line"/>
      <point x="219" y="271"/>
      <point x="268" y="339"/>
      <point x="333" y="339" type="curve"/>
      <point x="378" y="339"/>
      <point x="392" y="314"/>
      <point x="389" y="275" type="curve"/>
      <point x="356" y="0" type="line"/>
      <point x="496" y="0" type="line"/>
      <point x="536" y="327" type="line"/>
      <point x="543" y="404"/>
      <point x="488" y="458"/>
      <point x="406" y="458" type="curve"/>
      <point x="325" y="458"/>
      <point x="261" y="421"/>
    </contour>
  </outline>
</glyph>
<glyph name="k" format="2">
  <advance width="547"/>
  <unicode hex="006B"/>
  <anchor x="252" y="0" name="bottom"/>
  <anchor x="306" y="437" name="top"/>
  <outline>
    <contour>
      <point x="46" y="0" type="line"/>
      <point x="186" y="0" type="line"/>
      <point x="282" y="789" type="line"/>
      <point x="142" y="789" type="line"/>
    </contour>
    <contour>
      <point x="333" y="297" type="line"/>
      <point x="231" y="217" type="line"/>
      <point x="332" y="0" type="line"/>
      <point x="495" y="0" type="line"/>
    </contour>
    <contour>
      <point x="159" y="121" type="line"/>
      <point x="524" y="373" type="line"/>
      <point x="449" y="448" type="line"/>
      <point x="161" y="254" type="line"/>
    </contour>
  </outline>
</glyph>
<glyph name="m" format="2">
  <advance width="864"/>
  <unicode hex="006D"/>
  <anchor x="465" y="0" name="bottom"/>
  <anchor x="465" y="500" name="top"/>
  <outline>
    <contour>
      <point x="226" y="437" type="line"/>
      <point x="99" y="437" type="line"/>
      <point x="46" y="0" type="line"/>
      <point x="186" y="0" type="line"/>
      <point x="208" y="181" type="line"/>
      <point x="217" y="257"/>
      <point x="262" y="338"/>
      <point x="328" y="338" type="curve"/>
      <point x="367" y="335"/>
      <point x="372" y="309"/>
      <point x="369" y="270" type="curve"/>
      <point x="336" y="0" type="line"/>
      <point x="476" y="0" type="line"/>
      <point x="498" y="179" type="line"/>
      <point x="507" y="257"/>
      <point x="552" y="338"/>
      <point x="621" y="338" type="curve"/>
      <point x="659" y="335"/>
      <point x="662" y="309"/>
      <point x="659" y="270" type="curve"/>
      <point x="626" y="0" type="line"/>
      <point x="765" y="0" type="line"/>
      <point x="805" y="328" type="line"/>
      <point x="813" y="405"/>
      <point x="765" y="459"/>
      <point x="678" y="459" type="curve"/>
      <point x="620" y="459"/>
      <point x="561" y="421"/>
      <point x="518" y="371" type="curve"/>
      <point x="520" y="372" type="line"/>
      <point x="513" y="433"/>
      <point x="468" y="459"/>
      <point x="397" y="459" type="curve"/>
      <point x="324" y="459"/>
      <point x="267" y="425"/>
      <point x="226" y="366" type="curve"/>
      <point x="228" y="352" type="line"/>
    </contour>
  </outline>
</glyph>
<glyph name="n" format="2">
  <advance width="595"/>
  <unicode hex="006E"/>
  <anchor x="271" y="0" name="bottom"/>
  <anchor x="333" y="500" name="top"/>
  <outline>
    <contour>
      <point x="226" y="437" type="line"/>
      <point x="99" y="437" type="line"/>
      <point x="46" y="0" type="line"/>
      <point x="186" y="0" type="line"/>
      <point x="208" y="178" type="line"/>
      <point x="219" y="271"/>
      <point x="268" y="339"/>
      <point x="333" y="339" type="curve"/>
      <point x="378" y="339"/>
      <point x="392" y="314"/>
      <point x="390" y="275" type="curve"/>
      <point x="356" y="0" type="line"/>
      <point x="496" y="0" type="line"/>
      <point x="536" y="327" type="line"/>
      <point x="543" y="404"/>
      <point x="488" y="458"/>
      <point x="406" y="458" type="curve"/>
      <point x="325" y="458"/>
      <point x="261" y="421"/>
      <point x="224" y="366" type="curve"/>
      <point x="229" y="350" type="line"/>
    </contour>
  </outline>
</glyph>
<glyph name="o" format="2">
  <advance width="573"/>
  <unicode hex="006F"/>
  <anchor x="278" y="0" name="bottom"/>
  <anchor x="278" y="250" name="center"/>
  <anchor x="409" y="10" name="ogonek"/>
  <anchor x="298" y="450" name="top"/>
  <anchor x="441" y="343" name="topright"/>
  <outline>
    <contour>
      <point x="279" y="-12" type="curve" smooth="yes"/>
      <point x="486" y="-12"/>
      <point x="536" y="156"/>
      <point x="536" y="241" type="curve" smooth="yes"/>
      <point x="536" y="382"/>
      <point x="414" y="457"/>
      <point x="297" y="457" type="curve" smooth="yes"/>
      <point x="104" y="457"/>
      <point x="38" y="311"/>
      <point x="38" y="204" type="curve" smooth="yes"/>
      <point x="38" y="51"/>
      <point x="176" y="-12"/>
    </contour>
    <contour>
      <point x="283" y="103" type="curve" smooth="yes"/>
      <point x="246" y="103"/>
      <point x="179" y="121"/>
      <point x="179" y="211" type="curve" smooth="yes"/>
      <point x="179" y="265"/>
      <point x="210" y="343"/>
      <point x="292" y="343" type="curve" smooth="yes"/>
      <point x="322" y="343"/>
      <point x="394" y="329"/>
      <point x="394" y="235" type="curve" smooth="yes"/>
      <point x="394" y="183"/>
      <point x="368" y="103"/>
    </contour>
  </outline>
</glyph>
<glyph name="p" format="2">
  <advance width="612"/>
  <unicode hex="0070"/>
  <anchor x="262" y="0" name="bottom"/>
  <anchor x="316" y="437" name="top"/>
  <outline>
    <contour>
      <point x="302" y="-12" type="curve"/>
      <point x="474" y="-12"/>
      <point x="577" y="116"/>
      <point x="577" y="261" type="curve" smooth="yes"/>
      <point x="577" y="382"/>
      <point x="485" y="459"/>
      <point x="375" y="459" type="curve"/>
      <point x="322" y="459"/>
      <point x="260" y="432"/>
      <point x="196" y="392" type="curve"/>
      <point x="226" y="362" type="line"/>
      <point x="222" y="447" type="line"/>
      <point x="102" y="447" type="line"/>
      <point x="19" y="-210" type="line"/>
      <point x="158" y="-210" type="line"/>
      <point x="191" y="85" type="line"/>
      <point x="159" y="49" type="line"/>
      <point x="185" y="13"/>
      <point x="250" y="-12"/>
    </contour>
    <contour>
      <point x="298" y="105" type="curve"/>
      <point x="247" y="105"/>
      <point x="216" y="132"/>
      <point x="199" y="175" type="curve"/>
      <point x="212" y="282" type="line"/>
      <point x="244" y="326"/>
      <point x="279" y="348"/>
      <point x="325" y="348" type="curve"/>
      <point x="381" y="348"/>
      <point x="435" y="305"/>
      <point x="435" y="239" type="curve" smooth="yes"/>
      <point x="435" y="170"/>
      <point x="385" y="105"/>
    </contour>
  </outline>
</glyph>
<glyph name="q" format="2">
  <advance width="617"/>
  <unicode hex="0071"/>
  <anchor x="276" y="0" name="bottom"/>
  <anchor x="330" y="437" name="top"/>
  <outline>
    <contour>
      <point x="242" y="-10" type="curve"/>
      <point x="360" y="-12"/>
      <point x="419" y="65"/>
      <point x="424" y="65" type="curve"/>
      <point x="390" y="95" type="line"/>
      <point x="352" y="-210" type="line"/>
      <point x="492" y="-210" type="line"/>
      <point x="572" y="437" type="line"/>
      <point x="442" y="437" type="line"/>
      <point x="423" y="378" type="line"/>
      <point x="433" y="390" type="line"/>
      <point x="409" y="425"/>
      <point x="371" y="459"/>
      <point x="284" y="459" type="curve"/>
      <point x="140" y="459"/>
      <point x="38" y="333"/>
      <point x="38" y="203" type="curve" smooth="yes"/>
      <point x="38" y="66"/>
      <point x="146" y="-12"/>
    </contour>
    <contour>
      <point x="283" y="100" type="curve"/>
      <point x="227" y="100"/>
      <point x="173" y="143"/>
      <point x="173" y="209" type="curve" smooth="yes"/>
      <point x="173" y="278"/>
      <point x="223" y="343"/>
      <point x="310" y="343" type="curve"/>
      <point x="361" y="343"/>
      <point x="396" y="316"/>
      <point x="413" y="273" type="curve"/>
      <point x="397" y="166" type="line"/>
      <point x="365" y="122"/>
      <point x="329" y="100"/>
    </contour>
  </outline>
</glyph>
<glyph name="r" format="2">
  <advance width="414"/>
  <unicode hex="0072"/>
  <anchor x="190" y="0" name="bottom"/>
  <anchor x="190" y="500" name="top"/>
  <outline>
    <contour>
      <point x="225" y="437" type="line"/>
      <point x="99" y="437" type="line"/>
      <point x="46" y="0" type="line"/>
      <point x="185" y="0" type="line"/>
      <point x="206" y="171" type="line"/>
      <point x="215" y="247"/>
      <point x="284" y="330"/>
      <point x="381" y="319" type="curve"/>
      <point x="405" y="459" type="line"/>
      <point x="356" y="459"/>
      <point x="268" y="417"/>
      <point x="221" y="340" type="curve"/>
    </contour>
  </outline>
</glyph>
<glyph name="t" format="2">
  <advance width="394"/>
  <unicode hex="0074"/>
  <anchor x="174" y="0" name="bottom"/>
  <anchor x="181" y="200" name="center"/>
  <anchor x="248" y="612" name="top"/>
  <anchor x="367" y="500" name="topright"/>
  <outline>
    <contour>
      <point x="159" y="629" type="line"/>
      <point x="136" y="439" type="line"/>
      <point x="68" y="439" type="line"/>
      <point x="55" y="330" type="line"/>
      <point x="123" y="330" type="line"/>
      <point x="83" y="0" type="line"/>
      <point x="223" y="0" type="line"/>
      <point x="263" y="330" type="line"/>
      <point x="369" y="330" type="line"/>
      <point x="382" y="439" type="line"/>
      <point x="276" y="439" type="line"/>
      <point x="299" y="629" type="line"/>
    </contour>
  </outline>
</glyph>
<glyph name="u" format="2">
  <advance width="584"/>
  <unicode hex="0075"/>
  <anchor x="297" y="-20" name="bottom"/>
  <anchor x="460" y="11" name="ogonek"/>
  <anchor x="327" y="500" name="top"/>
  <anchor x="501" y="321" name="topright"/>
  <outline>
    <contour>
      <point x="184" y="-21" type="curve"/>
      <point x="262" y="-21"/>
      <point x="323" y="16"/>
      <point x="360" y="71" type="curve"/>
      <point x="357" y="87" type="line"/>
      <point x="358" y="0" type="line"/>
      <point x="485" y="0" type="line"/>
      <point x="539" y="437" type="line"/>
      <point x="399" y="437" type="line"/>
      <point x="377" y="259" type="line"/>
      <point x="366" y="166"/>
      <point x="318" y="98"/>
      <point x="256" y="98" type="curve"/>
      <point x="215" y="98"/>
      <point x="203" y="123"/>
      <point x="205" y="162" type="curve"/>
      <point x="239" y="437" type="line"/>
      <point x="99" y="437" type="line"/>
      <point x="59" y="110" type="line"/>
      <point x="52" y="33"/>
      <point x="105" y="-21"/>
    </contour>
  </outline>
</glyph>
<glyph name="v" format="2">
  <advance width="534"/>
  <unicode hex="0076"/>
  <anchor x="211" y="0" name="bottom"/>
  <anchor x="273" y="500" name="top"/>
  <outline>
    <contour>
      <point x="241" y="-9" type="line"/>
      <point x="245" y="-9" type="line"/>
      <point x="547" y="437" type="line"/>
      <point x="391" y="437" type="line"/>
      <point x="226" y="138" type="line"/>
      <point x="311" y="135" type="line"/>
      <point x="199" y="437" type="line"/>
      <point x="33" y="437" type="line"/>
    </contour>
  </outline>
</glyph>
<glyph name="w" format="2">
  <advance width="684"/>
  <unicode hex="0077"/>
  <anchor x="315" y="0" name="bottom"/>
  <anchor x="369" y="437" name="top"/>
  <outline>
    <contour>
      <point x="441" y="-10" type="line"/>
      <point x="449" y="-10" type="line"/>
      <point x="697" y="437" type="line"/>
      <point x="561" y="437" type="line"/>
      <point x="450" y="218" type="line"/>
      <point x="476" y="220" type="line"/>
      <point x="407" y="437" type="line"/>
      <point x="288" y="437" type="line"/>
      <point x="305" y="387" type="line"/>
      <point x="198" y="209" type="line"/>
      <point x="246" y="202" type="line"/>
      <point x="169" y="437" type="line"/>
      <point x="33" y="437" type="line"/>
      <point x="173" y="-9" type="line"/>
      <point x="181" y="-9" type="line"/>
      <point x="339" y="272" type="line"/>
    </contour>
  </outline>
</glyph>
<glyph name="x" format="2">
  <advance width="517"/>
  <unicode hex="0078"/>
  <outline>
    <contour>
      <point x="489" y="0" type="line"/>
      <point x="209" y="437" type="line"/>
      <point x="37" y="437" type="line"/>
      <point x="320" y="0" type="line"/>
    </contour>
    <contour>
      <point x="280" y="298" type="line"/>
      <point x="316" y="197" type="line"/>
      <point x="519" y="437" type="line"/>
      <point x="380" y="437" type="line"/>
    </contour>
    <contour>
      <point x="242" y="140" type="line"/>
      <point x="190" y="234" type="line"/>
      <point x="-12" y="0" type="line"/>
      <point x="127" y="0" type="line"/>
    </contour>
  </outline>
</glyph>
<glyph name="y" format="2">
  <advance width="540"/>
  <unicode hex="0079"/>
  <anchor x="444" y="0" name="bottom"/>
  <anchor x="317" y="437" name="top"/>
  <outline>
    <contour>
      <point x="67" y="-210" type="line"/>
      <point x="202" y="-210" type="line"/>
      <point x="564" y="437" type="line"/>
      <point x="438" y="437" type="line"/>
    </contour>
    <contour>
      <point x="210" y="-2" type="line"/>
      <point x="326" y="68" type="line"/>
      <point x="207" y="437" type="line"/>
      <point x="50" y="437" type="line"/>
    </contour>
  </outline>
</glyph>
<glyph name="braceleft" format="2">
  <advance width="384"/>
  <unicode hex="007B"/>
  <outline>
    <contour>
      <point x="348" y="639" type="curve" smooth="yes"/>
      <point x="385" y="639" type="line"/>
      <point x="400" y="761" type="line"/>
      <point x="321" y="761" type="line" smooth="yes"/>
      <point x="243" y="761"/>
      <point x="184" y="769"/>
      <point x="168" y="641" type="curve" smooth="yes"/>
      <point x="150" y="497" type="line" smooth="yes"/>
      <point x="143" y="441"/>
      <point x="118" y="362"/>
      <point x="52" y="359" type="curve"/>
      <point x="38" y="243" type="line"/>
      <point x="38" y="243" type="line"/>
      <point x="103" y="240"/>
      <point x="109" y="161"/>
      <point x="102" y="105" type="curve" smooth="yes"/>
      <point x="82" y="-53" type="line" smooth="yes"/>
      <point x="69" y="-161"/>
      <point x="140" y="-153"/>
      <point x="209" y="-153" type="curve" smooth="yes"/>
      <point x="288" y="-153" type="line"/>
      <point x="303" y="-31" type="line"/>
      <point x="266" y="-31" type="line" smooth="yes"/>
      <point x="224" y="-31"/>
      <point x="213" y="-22"/>
      <point x="224" y="69" type="curve" smooth="yes"/>
      <point x="239" y="188" type="line" smooth="yes"/>
      <point x="246" y="243"/>
      <point x="207" y="289"/>
      <point x="188" y="303" type="curve"/>
      <point x="211" y="320"/>
      <point x="261" y="362"/>
      <point x="268" y="420" type="curve" smooth="yes"/>
      <point x="282" y="540" type="line" smooth="yes"/>
      <point x="293" y="631"/>
      <point x="306" y="639"/>
    </contour>
  </outline>
</glyph>
<glyph name="bar" format="2">
  <advance width="306"/>
  <unicode hex="007C"/>
  <outline>
    <contour>
      <point x="176" y="714" type="line"/>
      <point x="59" y="-237" type="line"/>
      <point x="185" y="-237" type="line"/>
      <point x="302" y="714" type="line"/>
    </contour>
  </outline>
</glyph>
<glyph name="braceright" format="2">
  <advance width="375"/>
  <unicode hex="007D"/>
  <outline>
    <contour>
      <point x="57" y="-31" type="curve" smooth="yes"/>
      <point x="20" y="-31" type="line"/>
      <point x="5" y="-153" type="line"/>
      <point x="84" y="-153" type="line" smooth="yes"/>
      <point x="162" y="-153"/>
      <point x="223" y="-159"/>
      <point x="238" y="-32" type="curve" smooth="yes"/>
      <point x="257" y="126" type="line" smooth="yes"/>
      <point x="264" y="187"/>
      <point x="298" y="242"/>
      <point x="353" y="243" type="curve"/>
      <point x="367" y="359" type="line"/>
      <point x="367" y="359" type="line"/>
      <point x="313" y="360"/>
      <point x="293" y="416"/>
      <point x="300" y="476" type="curve" smooth="yes"/>
      <point x="320" y="641" type="line" smooth="yes"/>
      <point x="336" y="770"/>
      <point x="270" y="761"/>
      <point x="196" y="761" type="curve" smooth="yes"/>
      <point x="117" y="761" type="line"/>
      <point x="102" y="639" type="line"/>
      <point x="139" y="639" type="line" smooth="yes"/>
      <point x="181" y="639"/>
      <point x="191" y="631"/>
      <point x="180" y="540" type="curve" smooth="yes"/>
      <point x="165" y="420" type="line" smooth="yes"/>
      <point x="158" y="362"/>
      <point x="198" y="320"/>
      <point x="217" y="303" type="curve"/>
      <point x="190" y="286"/>
      <point x="144" y="244"/>
      <point x="134" y="167" type="curve" smooth="yes"/>
      <point x="122" y="69" type="line" smooth="yes"/>
      <point x="111" y="-22"/>
      <point x="99" y="-31"/>
    </contour>
  </outline>
</glyph>
<glyph name="asciitilde" format="2">
  <advance width="451"/>
  <unicode hex="007E"/>
  <outline>
    <contour>
      <point x="341" y="417" type="curve"/>
      <point x="413" y="412"/>
      <point x="479" y="488"/>
      <point x="474" y="593" type="curve"/>
      <point x="389" y="599" type="line"/>
      <point x="388" y="560"/>
      <point x="380" y="515"/>
      <point x="349" y="517" type="curve"/>
      <point x="330" y="518"/>
      <point x="314" y="536"/>
      <point x="294" y="556" type="curve"/>
      <point x="269" y="582"/>
      <point x="241" y="611"/>
      <point x="201" y="613" type="curve"/>
      <point x="107" y="619"/>
      <point x="49" y="531"/>
      <point x="48" y="437" type="curve"/>
      <point x="133" y="431" type="line"/>
      <point x="133" y="468"/>
      <point x="146" y="510"/>
      <point x="179" y="508" type="curve"/>
      <point x="197" y="507"/>
      <point x="212" y="493"/>
      <point x="228" y="477" type="curve"/>
      <point x="255" y="451"/>
      <point x="285" y="420"/>
    </contour>
  </outline>
</glyph>
<glyph name="cent" format="2">
  <advance width="485"/>
  <unicode hex="00A2"/>
  <outline>
    <contour>
      <point x="274" y="506" type="line"/>
      <point x="204" y="-68" type="line"/>
      <point x="288" y="-68" type="line"/>
      <point x="358" y="506" type="line"/>
    </contour>
    <component base="c"/>
  </outline>
</glyph>
<glyph name="sterling" format="2">
  <advance width="585"/>
  <unicode hex="00A3"/>
  <outline>
    <contour>
      <point x="468" y="418" type="line"/>
      <point x="113" y="418" type="line"/>
      <point x="96" y="278" type="line"/>
      <point x="451" y="278" type="line"/>
    </contour>
    <contour>
      <point x="196" y="560" type="curve" smooth="yes"/>
      <point x="154" y="213" type="line" smooth="yes"/>
      <point x="146" y="144"/>
      <point x="131" y="140"/>
      <point x="92" y="140" type="curve" smooth="yes"/>
      <point x="47" y="140" type="line"/>
      <point x="30" y="0" type="line"/>
      <point x="450" y="0" type="line" smooth="yes"/>
      <point x="544" y="0"/>
      <point x="598" y="53"/>
      <point x="608" y="132" type="curve" smooth="yes"/>
      <point x="618" y="213" type="line"/>
      <point x="492" y="212" type="line"/>
      <point x="488" y="179" type="line" smooth="yes"/>
      <point x="485" y="152"/>
      <point x="468" y="140"/>
      <point x="439" y="140" type="curve" smooth="yes"/>
      <point x="260" y="140" type="line"/>
      <point x="266" y="132" type="line"/>
      <point x="282" y="147"/>
      <point x="292" y="179"/>
      <point x="299" y="217" type="curve" smooth="yes"/>
      <point x="302" y="234" type="line"/>
      <point x="335" y="504" type="line" smooth="yes"/>
      <point x="343" y="570"/>
      <point x="377" y="597"/>
      <point x="442" y="597" type="curve" smooth="yes"/>
      <point x="497" y="597"/>
      <point x="525" y="570"/>
      <point x="539" y="555" type="curve"/>
      <point x="653" y="627" type="line"/>
      <point x="625" y="696"/>
      <point x="555" y="737"/>
      <point x="456" y="737" type="curve" smooth="yes"/>
      <point x="314" y="737"/>
      <point x="208" y="656"/>
    </contour>
  </outline>
</glyph>
<glyph name="yen" format="2">
  <advance width="722"/>
  <unicode hex="00A5"/>
  <outline>
    <contour>
      <point x="187" y="315" type="line"/>
      <point x="173" y="202" type="line"/>
      <point x="562" y="202" type="line"/>
      <point x="576" y="315" type="line"/>
    </contour>
    <contour>
      <point x="171" y="177" type="line"/>
      <point x="157" y="64" type="line"/>
      <point x="545" y="64" type="line"/>
      <point x="559" y="177" type="line"/>
    </contour>
    <contour>
      <point x="298" y="309" type="line"/>
      <point x="260" y="0" type="line"/>
      <point x="405" y="0" type="line"/>
      <point x="443" y="309" type="line"/>
      <point x="771" y="736" type="line"/>
      <point x="592" y="736" type="line"/>
      <point x="368" y="431" type="line"/>
      <point x="411" y="434" type="line"/>
      <point x="258" y="736" type="line"/>
      <point x="79" y="736" type="line"/>
    </contour>
  </outline>
</glyph>
<glyph name="brokenbar" format="2">
  <advance width="219"/>
  <unicode hex="00A6"/>
  <outline>
    <contour>
      <point x="66" y="119" type="line"/>
      <point x="22" y="-238" type="line"/>
      <point x="148" y="-238" type="line"/>
      <point x="192" y="119" type="line"/>
    </contour>
    <contour>
      <point x="139" y="714" type="line"/>
      <point x="95" y="357" type="line"/>
      <point x="221" y="357" type="line"/>
      <point x="265" y="714" type="line"/>
    </contour>
  </outline>
</glyph>
<glyph name="section" format="2">
  <advance width="580"/>
  <unicode hex="00A7"/>
  <outline>
    <contour>
      <point x="375" y="133" type="line"/>
      <point x="475" y="148"/>
      <point x="530" y="216"/>
      <point x="539" y="291" type="curve" smooth="yes"/>
      <point x="554" y="408"/>
      <point x="458" y="449"/>
      <point x="380" y="476" type="curve"/>
      <point x="321" y="496"/>
      <point x="269" y="518"/>
      <point x="274" y="560" type="curve" smooth="yes"/>
      <point x="277" y="589"/>
      <point x="302" y="612"/>
      <point x="364" y="608" type="curve"/>
      <point x="401" y="604"/>
      <point x="437" y="589"/>
      <point x="484" y="541" type="curve"/>
      <point x="559" y="644" type="line"/>
      <point x="513" y="693"/>
      <point x="452" y="728"/>
      <point x="364" y="735" type="curve"/>
      <point x="201" y="745"/>
      <point x="131" y="642"/>
      <point x="120" y="548" type="curve" smooth="yes"/>
      <point x="112" y="480"/>
      <point x="132" y="408"/>
      <point x="244" y="364" type="curve"/>
      <point x="261" y="415" type="line"/>
      <point x="181" y="426"/>
      <point x="82" y="389"/>
      <point x="69" y="275" type="curve" smooth="yes"/>
      <point x="56" y="170"/>
      <point x="154" y="116"/>
      <point x="234" y="91" type="curve"/>
      <point x="289" y="73"/>
      <point x="339" y="51"/>
      <point x="333" y="8" type="curve" smooth="yes"/>
      <point x="328" y="-35"/>
      <point x="291" y="-57"/>
      <point x="243" y="-54" type="curve" smooth="yes"/>
      <point x="199" y="-52"/>
      <point x="156" y="-32"/>
      <point x="99" y="22" type="curve"/>
      <point x="12" y="-94" type="line"/>
      <point x="76" y="-158"/>
      <point x="160" y="-179"/>
      <point x="235" y="-184" type="curve" smooth="yes"/>
      <point x="368" y="-192"/>
      <point x="473" y="-99"/>
      <point x="487" y="21" type="curve" smooth="yes"/>
      <point x="500" y="123"/>
      <point x="426" y="183"/>
      <point x="327" y="190" type="curve"/>
    </contour>
    <contour>
      <point x="395" y="273" type="curve"/>
      <point x="388" y="234"/>
      <point x="336" y="213"/>
      <point x="291" y="213" type="curve"/>
      <point x="250" y="227"/>
      <point x="206" y="261"/>
      <point x="214" y="303" type="curve"/>
      <point x="220" y="331"/>
      <point x="258" y="354"/>
      <point x="310" y="347" type="curve"/>
      <point x="348" y="342"/>
      <point x="402" y="308"/>
    </contour>
  </outline>
</glyph>
<glyph name="dieresis" format="2">
  <advance width="378"/>
  <unicode hex="00A8"/>
  <outline>
    <contour>
      <point x="51" y="552" type="curve" smooth="yes"/>
      <point x="51" y="552" type="line" smooth="yes"/>
      <point x="46" y="510"/>
      <point x="78" y="478"/>
      <point x="114" y="476" type="curve" smooth="yes"/>
      <point x="147" y="474"/>
      <point x="187" y="501"/>
      <point x="192" y="544" type="curve" smooth="yes"/>
      <point x="197" y="586"/>
      <point x="164" y="619"/>
      <point x="131" y="621" type="curve" smooth="yes"/>
      <point x="96" y="623"/>
      <point x="56" y="594"/>
    </contour>
    <contour>
      <point x="250" y="552" type="curve" smooth="yes"/>
      <point x="250" y="552" type="line" smooth="yes"/>
      <point x="245" y="509"/>
      <point x="277" y="478"/>
      <point x="313" y="476" type="curve" smooth="yes"/>
      <point x="345" y="474"/>
      <point x="386" y="501"/>
      <point x="391" y="544" type="curve" smooth="yes"/>
      <point x="396" y="585"/>
      <point x="363" y="619"/>
      <point x="330" y="621" type="curve" smooth="yes"/>
      <point x="294" y="623"/>
      <point x="255" y="594"/>
    </contour>
  </outline>
</glyph>
<glyph name="copyright" format="2">
  <advance width="881"/>
  <unicode hex="00A9"/>
  <outline>
    <contour>
      <point x="607" y="172" type="curve"/>
      <point x="555" y="270" type="line"/>
      <point x="529" y="243"/>
      <point x="494" y="232"/>
      <point x="465" y="234" type="curve"/>
      <point x="418" y="237"/>
      <point x="396" y="276"/>
      <point x="402" y="320" type="curve"/>
      <point x="407" y="361"/>
      <point x="437" y="400"/>
      <point x="483" y="398" type="curve"/>
      <point x="508" y="396"/>
      <point x="533" y="390"/>
      <point x="551" y="366" type="curve"/>
      <point x="620" y="470" type="line"/>
      <point x="592" y="501"/>
      <point x="530" y="517"/>
      <point x="487" y="520" type="curve"/>
      <point x="360" y="528"/>
      <point x="272" y="446"/>
      <point x="257" y="324" type="curve"/>
      <point x="244" y="215"/>
      <point x="318" y="118"/>
      <point x="426" y="108" type="curve"/>
      <point x="504" y="103"/>
      <point x="570" y="138"/>
    </contour>
    <contour>
      <point x="405" y="-70" type="curve"/>
      <point x="617" y="-83"/>
      <point x="813" y="71"/>
      <point x="840" y="288" type="curve"/>
      <point x="867" y="509"/>
      <point x="711" y="682"/>
      <point x="499" y="695" type="curve"/>
      <point x="287" y="708"/>
      <point x="91" y="556"/>
      <point x="64" y="336" type="curve"/>
      <point x="38" y="118"/>
      <point x="193" y="-57"/>
    </contour>
    <contour>
      <point x="419" y="42" type="curve"/>
      <point x="267" y="51"/>
      <point x="164" y="173"/>
      <point x="183" y="328" type="curve"/>
      <point x="203" y="485"/>
      <point x="333" y="593"/>
      <point x="485" y="583" type="curve"/>
      <point x="637" y="574"/>
      <point x="739" y="452"/>
      <point x="719" y="296" type="curve"/>
      <point x="700" y="140"/>
      <point x="571" y="32"/>
    </contour>
  </outline>
</glyph>
<glyph name="guillemetleft" format="2">
  <advance width="613"/>
  <unicode hex="00AB"/>
  <outline>
    <contour>
      <point x="149" y="244" type="curve"/>
      <point x="298" y="39" type="line"/>
      <point x="315" y="181" type="line"/>
      <point x="315" y="181"/>
      <point x="282" y="244"/>
      <point x="282" y="244" type="curve"/>
      <point x="282" y="244"/>
      <point x="331" y="306"/>
      <point x="331" y="306" type="curve"/>
      <point x="348" y="448" type="line"/>
      <point x="348" y="448"/>
      <point x="149" y="244"/>
    </contour>
    <contour>
      <point x="323" y="244" type="curve"/>
      <point x="473" y="39" type="line"/>
      <point x="490" y="181" type="line"/>
      <point x="490" y="181"/>
      <point x="456" y="244"/>
      <point x="456" y="244" type="curve"/>
      <point x="456" y="244"/>
      <point x="506" y="307"/>
      <point x="506" y="307" type="curve"/>
      <point x="523" y="448" type="line"/>
      <point x="523" y="448"/>
      <point x="323" y="244"/>
    </contour>
  </outline>
</glyph>
<glyph name="logicalnot" format="2">
  <advance width="467"/>
  <unicode hex="00AC"/>
  <outline>
    <contour>
      <point x="64" y="329" type="line"/>
      <point x="46" y="189" type="line"/>
      <point x="268" y="189" type="line"/>
      <point x="256" y="91" type="line"/>
      <point x="401" y="91" type="line"/>
      <point x="431" y="329" type="line"/>
    </contour>
  </outline>
</glyph>
<glyph name="registered" format="2">
  <advance width="567"/>
  <unicode hex="00AE"/>
  <outline>
    <contour>
      <point x="285" y="230" type="curve"/>
      <point x="425" y="222"/>
      <point x="555" y="323"/>
      <point x="572" y="466" type="curve"/>
      <point x="590" y="612"/>
      <point x="487" y="726"/>
      <point x="347" y="735" type="curve"/>
      <point x="207" y="743"/>
      <point x="77" y="643"/>
      <point x="59" y="498" type="curve"/>
      <point x="42" y="354"/>
      <point x="145" y="239"/>
    </contour>
    <contour>
      <point x="294" y="305" type="curve"/>
      <point x="195" y="311"/>
      <point x="128" y="391"/>
      <point x="141" y="493" type="curve"/>
      <point x="154" y="596"/>
      <point x="238" y="666"/>
      <point x="338" y="660" type="curve"/>
      <point x="437" y="654"/>
      <point x="504" y="574"/>
      <point x="491" y="471" type="curve"/>
      <point x="478" y="369"/>
      <point x="394" y="299"/>
    </contour>
    <contour>
      <point x="241" y="611" type="line"/>
      <point x="211" y="369" type="line"/>
      <point x="285" y="369" type="line"/>
      <point x="295" y="441" type="line"/>
      <point x="343" y="441" type="line" smooth="yes"/>
      <point x="398" y="441"/>
      <point x="422" y="479"/>
      <point x="426" y="517" type="curve"/>
      <point x="433" y="567"/>
      <point x="410" y="611"/>
      <point x="346" y="611" type="curve" smooth="yes"/>
    </contour>
    <contour>
      <point x="319" y="498" type="curve"/>
      <point x="302" y="498" type="line"/>
      <point x="308" y="551" type="line"/>
      <point x="325" y="551" type="line"/>
      <point x="346" y="550"/>
      <point x="348" y="532"/>
      <point x="347" y="520" type="curve"/>
      <point x="345" y="505"/>
      <point x="339" y="497"/>
    </contour>
    <contour>
      <point x="377" y="453" type="line"/>
      <point x="300" y="456" type="line"/>
      <point x="319" y="369" type="line"/>
      <point x="402" y="369" type="line"/>
    </contour>
  </outline>
</glyph>
<glyph name="macron" format="2">
  <advance width="408"/>
  <unicode hex="00AF"/>
  <outline>
    <contour>
      <point x="155" y="556" type="line"/>
      <point x="146" y="479" type="line"/>
      <point x="381" y="479" type="line"/>
      <point x="390" y="556" type="line"/>
    </contour>
  </outline>
</glyph>
<glyph name="degree" format="2">
  <advance width="287"/>
  <unicode hex="00B0"/>
  <outline>
    <contour>
      <point x="23" y="579" type="curve" smooth="yes"/>
      <point x="23" y="579" type="line" smooth="yes"/>
      <point x="15" y="514"/>
      <point x="61" y="459"/>
      <point x="127" y="455" type="curve" smooth="yes"/>
      <point x="189" y="451"/>
      <point x="248" y="500"/>
      <point x="255" y="565" type="curve" smooth="yes"/>
      <point x="263" y="629"/>
      <point x="218" y="683"/>
      <point x="155" y="687" type="curve" smooth="yes"/>
      <point x="90" y="691"/>
      <point x="31" y="643"/>
    </contour>
    <contour>
      <point x="136" y="529" type="curve"/>
      <point x="136" y="529" type="line"/>
      <point x="113" y="530"/>
      <point x="97" y="549"/>
      <point x="100" y="572" type="curve" smooth="yes"/>
      <point x="103" y="595"/>
      <point x="123" y="613"/>
      <point x="146" y="612" type="curve" smooth="yes"/>
      <point x="169" y="610"/>
      <point x="185" y="590"/>
      <point x="183" y="567" type="curve" smooth="yes"/>
      <point x="180" y="544"/>
      <point x="159" y="528"/>
    </contour>
  </outline>
</glyph>
<glyph name="plusminus" format="2">
  <advance width="535"/>
  <unicode hex="00B1"/>
  <outline>
    <contour>
      <point x="279" y="582" type="line"/>
      <point x="264" y="458" type="line"/>
      <point x="144" y="458" type="line"/>
      <point x="129" y="337" type="line"/>
      <point x="249" y="337" type="line"/>
      <point x="234" y="215" type="line"/>
      <point x="361" y="215" type="line"/>
      <point x="376" y="337" type="line"/>
      <point x="496" y="337" type="line"/>
      <point x="511" y="458" type="line"/>
      <point x="391" y="458" type="line"/>
      <point x="406" y="582" type="line"/>
    </contour>
    <contour>
      <point x="110" y="183" type="line"/>
      <point x="95" y="61" type="line"/>
      <point x="462" y="61" type="line"/>
      <point x="477" y="183" type="line"/>
    </contour>
  </outline>
</glyph>
<glyph name="twosuperior" format="2">
  <advance width="408"/>
  <unicode hex="00B2"/>
  <outline>
    <contour>
      <point x="95" y="623" type="curve"/>
      <point x="123" y="531" type="line"/>
      <point x="140" y="553"/>
      <point x="181" y="575"/>
      <point x="210" y="575" type="curve" smooth="yes"/>
      <point x="246" y="575"/>
      <point x="259" y="554"/>
      <point x="254" y="509" type="curve" smooth="yes"/>
      <point x="245" y="437"/>
      <point x="136" y="373"/>
      <point x="78" y="346" type="curve"/>
      <point x="68" y="265" type="line"/>
      <point x="384" y="265" type="line"/>
      <point x="398" y="381" type="line"/>
      <point x="185" y="381" type="line"/>
      <point x="151" y="287" type="line"/>
      <point x="227" y="341"/>
      <point x="389" y="424"/>
      <point x="405" y="548" type="curve" smooth="yes"/>
      <point x="415" y="634"/>
      <point x="357" y="689"/>
      <point x="263" y="691" type="curve" smooth="yes"/>
      <point x="199" y="692"/>
      <point x="126" y="663"/>
    </contour>
  </outline>
</glyph>
<glyph name="threesuperior" format="2">
  <advance width="375"/>
  <unicode hex="00B3"/>
  <outline>
    <contour>
      <point x="167" y="260" type="curve" smooth="yes"/>
      <point x="266" y="260"/>
      <point x="338" y="324"/>
      <point x="348" y="403" type="curve" smooth="yes"/>
      <point x="357" y="474"/>
      <point x="282" y="533"/>
      <point x="237" y="533" type="curve"/>
      <point x="201" y="533"/>
      <point x="176" y="519"/>
      <point x="156" y="503" type="curve"/>
      <point x="243" y="476" type="line"/>
      <point x="371" y="680" type="line"/>
      <point x="113" y="680" type="line"/>
      <point x="100" y="580" type="line"/>
      <point x="239" y="580" type="line"/>
      <point x="213" y="600" type="line"/>
      <point x="122" y="474" type="line"/>
      <point x="128" y="462" type="line"/>
      <point x="135" y="466"/>
      <point x="155" y="470"/>
      <point x="164" y="470" type="curve" smooth="yes"/>
      <point x="200" y="470"/>
      <point x="227" y="445"/>
      <point x="222" y="407" type="curve" smooth="yes"/>
      <point x="217" y="371"/>
      <point x="194" y="356"/>
      <point x="160" y="350" type="curve" smooth="yes"/>
      <point x="132" y="345"/>
      <point x="108" y="380"/>
      <point x="99" y="392" type="curve"/>
      <point x="51" y="311" type="line"/>
      <point x="69" y="289"/>
      <point x="106" y="260"/>
    </contour>
  </outline>
</glyph>
<glyph name="acute" format="2">
  <advance width="312"/>
  <unicode hex="00B4"/>
  <outline>
    <contour>
      <point x="335" y="624" type="line"/>
      <point x="180" y="624" type="line"/>
      <point x="102" y="489" type="line"/>
      <point x="187" y="489" type="line"/>
    </contour>
  </outline>
</glyph>
<glyph name="paragraph" format="2">
  <advance width="592"/>
  <unicode hex="00B6"/>
  <outline>
    <contour>
      <point x="258" y="431" type="curve"/>
      <point x="205" y="0" type="line"/>
      <point x="330" y="0" type="line"/>
      <point x="409" y="644" type="line"/>
      <point x="451" y="644" type="line"/>
      <point x="372" y="0" type="line"/>
      <point x="496" y="0" type="line"/>
      <point x="590" y="765" type="line"/>
      <point x="299" y="765" type="line" smooth="yes"/>
      <point x="199" y="765"/>
      <point x="111" y="682"/>
      <point x="111" y="581" type="curve" smooth="yes"/>
      <point x="111" y="497"/>
      <point x="172" y="431"/>
    </contour>
  </outline>
</glyph>
<glyph name="cedilla" format="2">
  <advance width="461"/>
  <unicode hex="00B8"/>
  <outline>
    <contour>
      <point x="91" y="-130" type="curve"/>
      <point x="42" y="-183" type="line"/>
      <point x="62" y="-208"/>
      <point x="94" y="-231"/>
      <point x="153" y="-235" type="curve" smooth="yes"/>
      <point x="231" y="-239"/>
      <point x="312" y="-209"/>
      <point x="321" y="-133" type="curve" smooth="yes"/>
      <point x="329" y="-71"/>
      <point x="274" y="-37"/>
      <point x="200" y="-34" type="curve" smooth="yes"/>
      <point x="186" y="-35"/>
      <point x="172" y="-35"/>
      <point x="158" y="-37" type="curve"/>
      <point x="179" y="-73" type="line"/>
      <point x="255" y="3" type="line"/>
      <point x="149" y="3" type="line"/>
      <point x="85" y="-32" type="line"/>
      <point x="96" y="-99" type="line"/>
      <point x="115" y="-95"/>
      <point x="136" y="-91"/>
      <point x="157" y="-92" type="curve" smooth="yes"/>
      <point x="201" y="-95"/>
      <point x="208" y="-113"/>
      <point x="206" y="-128" type="curve" smooth="yes"/>
      <point x="203" y="-152"/>
      <point x="169" y="-162"/>
      <point x="148" y="-161" type="curve" smooth="yes"/>
      <point x="123" y="-159"/>
      <point x="102" y="-147"/>
    </contour>
  </outline>
</glyph>
<glyph name="onesuperior" format="2">
  <advance width="284"/>
  <unicode hex="00B9"/>
  <outline>
    <contour>
      <point x="82" y="680" type="line"/>
      <point x="67" y="555" type="line"/>
      <point x="135" y="555" type="line"/>
      <point x="100" y="265" type="line"/>
      <point x="230" y="265" type="line"/>
      <point x="280" y="680" type="line"/>
    </contour>
  </outline>
</glyph>
<glyph name="ordmasculine" format="2">
  <advance width="374"/>
  <unicode hex="00BA"/>
  <outline>
    <contour>
      <point x="71" y="591" type="curve"/>
      <point x="59" y="494"/>
      <point x="119" y="432"/>
      <point x="213" y="426" type="curve"/>
      <point x="313" y="420"/>
      <point x="381" y="482"/>
      <point x="392" y="571" type="curve"/>
      <point x="403" y="660"/>
      <point x="349" y="729"/>
      <point x="252" y="735" type="curve"/>
      <point x="155" y="741"/>
      <point x="82" y="680"/>
    </contour>
    <contour>
      <point x="178" y="583" type="curve"/>
      <point x="183" y="619"/>
      <point x="209" y="645"/>
      <point x="239" y="643" type="curve"/>
      <point x="271" y="641"/>
      <point x="289" y="613"/>
      <point x="285" y="577" type="curve"/>
      <point x="280" y="542"/>
      <point x="256" y="516"/>
      <point x="223" y="518" type="curve"/>
      <point x="194" y="520"/>
      <point x="174" y="548"/>
    </contour>
  </outline>
</glyph>
<glyph name="guillemetright" format="2">
  <advance width="613"/>
  <unicode hex="00BB"/>
  <outline>
    <contour>
      <point x="439" y="244" type="curve"/>
      <point x="290" y="39" type="line"/>
      <point x="273" y="181" type="line"/>
      <point x="273" y="181"/>
      <point x="306" y="244"/>
      <point x="306" y="244" type="curve"/>
      <point x="306" y="244"/>
      <point x="257" y="306"/>
      <point x="257" y="306" type="curve"/>
      <point x="240" y="448" type="line"/>
      <point x="240" y="448"/>
      <point x="439" y="244"/>
    </contour>
    <contour>
      <point x="265" y="244" type="curve"/>
      <point x="115" y="39" type="line"/>
      <point x="98" y="181" type="line"/>
      <point x="98" y="181"/>
      <point x="132" y="244"/>
      <point x="132" y="244" type="curve"/>
      <point x="132" y="244"/>
      <point x="82" y="307"/>
      <point x="82" y="307" type="curve"/>
      <point x="65" y="448" type="line"/>
      <point x="65" y="448"/>
      <point x="265" y="244"/>
    </contour>
  </outline>
</glyph>
<glyph name="AE" format="2">
  <advance width="971"/>
  <unicode hex="00C6"/>
  <anchor x="421" y="0" name="bottom"/>
  <anchor x="708" y="736" name="top"/>
  <outline>
    <contour>
      <point x="549" y="736" type="line"/>
      <point x="459" y="0" type="line"/>
      <point x="885" y="0" type="line"/>
      <point x="902" y="140" type="line"/>
      <point x="621" y="140" type="line"/>
      <point x="640" y="297" type="line"/>
      <point x="866" y="297" type="line"/>
      <point x="883" y="437" type="line"/>
      <point x="657" y="437" type="line"/>
      <point x="677" y="596" type="line"/>
      <point x="944" y="596" type="line"/>
      <point x="961" y="736" type="line"/>
    </contour>
    <contour>
      <point x="543" y="565" type="curve"/>
      <point x="549" y="736" type="line"/>
      <point x="-22" y="0" type="line"/>
      <point x="146" y="0" type="line"/>
      <point x="527" y="519" type="line"/>
      <point x="527" y="519"/>
      <point x="538" y="550"/>
    </contour>
    <contour>
      <point x="279" y="276" type="line"/>
      <point x="220" y="161" type="line"/>
      <point x="496" y="161" type="line"/>
      <point x="510" y="276" type="line"/>
    </contour>
  </outline>
</glyph>
<glyph name="multiply" format="2">
  <advance width="528"/>
  <unicode hex="00D7"/>
  <outline>
    <contour>
      <point x="323" y="296" type="curve"/>
      <point x="249" y="380" type="line"/>
      <point x="127" y="269" type="line"/>
      <point x="200" y="187" type="line"/>
      <point x="169" y="159"/>
      <point x="140" y="135"/>
      <point x="111" y="108" type="curve"/>
      <point x="142" y="73"/>
      <point x="173" y="38"/>
      <point x="206" y="2" type="curve"/>
      <point x="233" y="27"/>
      <point x="264" y="53"/>
      <point x="291" y="79" type="curve"/>
      <point x="315" y="52"/>
      <point x="340" y="27"/>
      <point x="363" y="0" type="curve"/>
      <point x="487" y="109" type="line"/>
      <point x="463" y="137"/>
      <point x="442" y="164"/>
      <point x="418" y="190" type="curve"/>
      <point x="445" y="216"/>
      <point x="476" y="244"/>
      <point x="503" y="268" type="curve"/>
      <point x="472" y="303"/>
      <point x="443" y="341"/>
      <point x="412" y="376" type="curve"/>
      <point x="380" y="348"/>
      <point x="354" y="324"/>
    </contour>
  </outline>
</glyph>
<glyph name="Oslash" format="2">
  <advance width="858"/>
  <unicode hex="00D8"/>
  <anchor x="402" y="0" name="bottom"/>
  <anchor x="493" y="736" name="top"/>
  <outline>
    <contour>
      <point x="854" y="675" type="line"/>
      <point x="792" y="739" type="line"/>
      <point x="101" y="40" type="line"/>
      <point x="165" y="-23" type="line"/>
    </contour>
    <component base="O"/>
  </outline>
</glyph>
<glyph name="Thorn" format="2">
  <advance width="617"/>
  <unicode hex="00DE"/>
  <outline>
    <contour>
      <point x="363" y="616" type="curve" smooth="yes"/>
      <point x="290" y="616" type="line"/>
      <point x="302" y="714" type="line"/>
      <point x="152" y="714" type="line"/>
      <point x="64" y="0" type="line"/>
      <point x="214" y="0" type="line"/>
      <point x="228" y="113" type="line"/>
      <point x="327" y="113" type="line" smooth="yes"/>
      <point x="541" y="113"/>
      <point x="618" y="272"/>
      <point x="618" y="399" type="curve" smooth="yes"/>
      <point x="618" y="531"/>
      <point x="529" y="616"/>
    </contour>
    <contour>
      <point x="338" y="254" type="curve" smooth="yes"/>
      <point x="245" y="254" type="line"/>
      <point x="272" y="476" type="line"/>
      <point x="366" y="476" type="line" smooth="yes"/>
      <point x="452" y="476"/>
      <point x="466" y="411"/>
      <point x="466" y="378" type="curve" smooth="yes"/>
      <point x="466" y="335"/>
      <point x="433" y="254"/>
    </contour>
  </outline>
</glyph>
<glyph name="ccedilla" format="2">
  <advance width="468"/>
  <unicode hex="00E7"/>
  <outline>
    <contour>
      <point x="370" y="127" type="curve"/>
      <point x="370" y="127" type="line"/>
      <point x="349" y="111"/>
      <point x="322" y="102"/>
      <point x="291" y="102" type="curve" smooth="yes"/>
      <point x="225" y="102"/>
      <point x="186" y="148"/>
      <point x="186" y="206" type="curve" smooth="yes"/>
      <point x="186" y="280"/>
      <point x="241" y="335"/>
      <point x="320" y="335" type="curve" smooth="yes"/>
      <point x="350" y="335"/>
      <point x="376" y="326"/>
      <point x="393" y="311" type="curve"/>
      <point x="422" y="341"/>
      <point x="450" y="369"/>
      <point x="478" y="398" type="curve"/>
      <point x="440" y="429"/>
      <point x="392" y="449"/>
      <point x="334" y="449" type="curve" smooth="yes"/>
      <point x="194" y="449"/>
      <point x="69" y="333"/>
      <point x="69" y="196" type="curve" smooth="yes"/>
      <point x="69" y="82"/>
      <point x="157" y="-12"/>
      <point x="277" y="-12" type="curve" smooth="yes"/>
      <point x="333" y="-12"/>
      <point x="387" y="8"/>
      <point x="430" y="39" type="curve"/>
      <point x="409" y="69"/>
      <point x="392" y="97"/>
    </contour>
    <contour>
      <point x="285" y="-8" type="curve" smooth="yes"/>
      <point x="286" y="0" type="line"/>
      <point x="212" y="0" type="line"/>
      <point x="209" y="-25" type="line" smooth="yes"/>
      <point x="201" y="-95"/>
      <point x="259" y="-89"/>
      <point x="259" y="-128" type="curve" smooth="yes"/>
      <point x="259" y="-154"/>
      <point x="245" y="-180"/>
      <point x="213" y="-180" type="curve" smooth="yes"/>
      <point x="191" y="-180"/>
      <point x="177" y="-166"/>
      <point x="174" y="-148" type="curve"/>
      <point x="151" y="-160"/>
      <point x="127" y="-172"/>
      <point x="104" y="-184" type="curve"/>
      <point x="117" y="-243"/>
      <point x="162" y="-271"/>
      <point x="213" y="-271" type="curve" smooth="yes"/>
      <point x="305" y="-271"/>
      <point x="349" y="-195"/>
      <point x="349" y="-133" type="curve" smooth="yes"/>
      <point x="349" y="-103"/>
      <point x="340" y="-79"/>
      <point x="321" y="-62" type="curve" smooth="yes"/>
      <point x="306" y="-48"/>
      <point x="280" y="-48"/>
    </contour>
  </outline>
</glyph>
<glyph name="eth" format="2">
  <advance width="571"/>
  <unicode hex="00F0"/>
  <outline>
    <contour>
      <point x="266" y="-11" type="curve" smooth="yes"/>
      <point x="470" y="-11"/>
      <point x="543" y="174"/>
      <point x="543" y="332" type="curve" smooth="yes"/>
      <point x="543" y="482"/>
      <point x="484" y="654"/>
      <point x="325" y="790" type="curve"/>
      <point x="210" y="704" type="line"/>
      <point x="353" y="567"/>
      <point x="419" y="470"/>
      <point x="392" y="248" type="curve"/>
      <point x="441" y="215" type="line"/>
      <point x="462" y="384"/>
      <point x="356" y="460"/>
      <point x="262" y="460" type="curve" smooth="yes"/>
      <point x="121" y="460"/>
      <point x="45" y="339"/>
      <point x="41" y="241" type="curve" smooth="yes"/>
      <point x="31" y="18"/>
      <point x="205" y="-11"/>
    </contour>
    <contour>
      <point x="278" y="103" type="curve" smooth="yes"/>
      <point x="244" y="103"/>
      <point x="174" y="122"/>
      <point x="175" y="210" type="curve" smooth="yes"/>
      <point x="175" y="256"/>
      <point x="204" y="343"/>
      <point x="286" y="344" type="curve" smooth="yes"/>
      <point x="318" y="344"/>
      <point x="402" y="326"/>
      <point x="388" y="217" type="curve"/>
      <point x="380" y="152"/>
      <point x="337" y="105"/>
    </contour>
    <contour>
      <point x="542" y="654" type="line"/>
      <point x="508" y="749" type="line"/>
      <point x="211" y="597" type="line"/>
      <point x="245" y="501" type="line"/>
    </contour>
  </outline>
</glyph>
<glyph name="divide" format="2">
  <advance width="510"/>
  <unicode hex="00F7"/>
  <outline>
    <contour>
      <point x="198" y="106" type="curve" smooth="yes"/>
      <point x="198" y="106" type="line" smooth="yes"/>
      <point x="198" y="67"/>
      <point x="229" y="42"/>
      <point x="262" y="42" type="curve" smooth="yes"/>
      <point x="297" y="42"/>
      <point x="341" y="73"/>
      <point x="341" y="121" type="curve" smooth="yes"/>
      <point x="341" y="158"/>
      <point x="310" y="187"/>
      <point x="279" y="187" type="curve" smooth="yes"/>
      <point x="241" y="187"/>
      <point x="198" y="152"/>
    </contour>
    <contour>
      <point x="237" y="421" type="curve" smooth="yes"/>
      <point x="237" y="421" type="line" smooth="yes"/>
      <point x="237" y="382"/>
      <point x="267" y="357"/>
      <point x="300" y="357" type="curve" smooth="yes"/>
      <point x="336" y="357"/>
      <point x="380" y="388"/>
      <point x="380" y="436" type="curve" smooth="yes"/>
      <point x="380" y="473"/>
      <point x="349" y="502"/>
      <point x="318" y="502" type="curve" smooth="yes"/>
      <point x="279" y="502"/>
      <point x="237" y="467"/>
    </contour>
    <contour>
      <point x="110" y="329" type="line"/>
      <point x="95" y="208" type="line"/>
      <point x="462" y="208" type="line"/>
      <point x="477" y="329" type="line"/>
    </contour>
  </outline>
</glyph>
<glyph name="oslash" format="2">
  <advance width="546"/>
  <unicode hex="00F8"/>
  <outline>
    <contour>
      <point x="555" y="426" type="curve"/>
      <point x="500" y="474" type="line"/>
      <point x="450" y="423"/>
      <point x="88" y="65"/>
      <point x="38" y="14" type="curve"/>
      <point x="89" y="-37" type="line"/>
      <point x="140" y="15"/>
      <point x="503" y="374"/>
    </contour>
    <component base="o"/>
  </outline>
</glyph>
<glyph name="thorn" format="2">
  <advance width="583"/>
  <unicode hex="00FE"/>
  <outline>
    <contour>
      <point x="259" y="789" type="line"/>
      <point x="142" y="789" type="line"/>
      <point x="19" y="-210" type="line"/>
      <point x="136" y="-210" type="line"/>
      <point x="166" y="33" type="line"/>
      <point x="164" y="29" type="line"/>
      <point x="178" y="13"/>
      <point x="225" y="-12"/>
      <point x="285" y="-12" type="curve" smooth="yes"/>
      <point x="435" y="-12"/>
      <point x="546" y="77"/>
      <point x="546" y="250" type="curve" smooth="yes"/>
      <point x="546" y="376"/>
      <point x="470" y="449"/>
      <point x="348" y="449" type="curve" smooth="yes"/>
      <point x="277" y="449"/>
      <point x="228" y="414"/>
      <point x="208" y="399" type="curve"/>
      <point x="208" y="375" type="line"/>
    </contour>
    <contour>
      <point x="418" y="236" type="curve" smooth="yes"/>
      <point x="418" y="160"/>
      <point x="373" y="102"/>
      <point x="293" y="102" type="curve" smooth="yes"/>
      <point x="228" y="102"/>
      <point x="188" y="147"/>
      <point x="188" y="206" type="curve" smooth="yes"/>
      <point x="188" y="280"/>
      <point x="245" y="335"/>
      <point x="322" y="335" type="curve" smooth="yes"/>
      <point x="386" y="335"/>
      <point x="418" y="294"/>
    </contour>
  </outline>
</glyph>
<glyph name="dcroat" format="2">
  <advance width="595"/>
  <unicode hex="0111"/>
  <outline>
    <contour>
      <point x="347" y="700" type="line"/>
      <point x="335" y="601" type="line"/>
      <point x="643" y="601" type="line"/>
      <point x="655" y="700" type="line"/>
    </contour>
    <component base="d"/>
  </outline>
</glyph>
<glyph name="eogonek" format="2">
  <advance width="552"/>
  <unicode hex="0119"/>
  <outline>
    <contour>
      <point x="290" y="-203" type="curve"/>
      <point x="336" y="-206"/>
      <point x="398" y="-179"/>
      <point x="434" y="-136" type="curve"/>
      <point x="393" y="-62" type="line"/>
      <point x="367" y="-93"/>
      <point x="342" y="-108"/>
      <point x="315" y="-106" type="curve"/>
      <point x="292" y="-105"/>
      <point x="272" y="-90"/>
      <point x="276" y="-61" type="curve" smooth="yes"/>
      <point x="279" y="-37"/>
      <point x="303" y="-19"/>
      <point x="340" y="-3" type="curve" smooth="yes"/>
      <point x="361" y="6"/>
      <point x="387" y="14"/>
      <point x="415" y="23" type="curve"/>
      <point x="366" y="131" type="line"/>
      <point x="340" y="117"/>
      <point x="316" y="107"/>
      <point x="290" y="107" type="curve" smooth="yes"/>
      <point x="242" y="107"/>
      <point x="176" y="131"/>
      <point x="176" y="231" type="curve" smooth="yes"/>
      <point x="176" y="289"/>
      <point x="208" y="348"/>
      <point x="290" y="348" type="curve" smooth="yes"/>
      <point x="331" y="348"/>
      <point x="365" y="323"/>
      <point x="376" y="278" type="curve"/>
      <point x="425" y="293" type="line"/>
      <point x="151" y="222" type="line"/>
      <point x="173" y="144" type="line"/>
      <point x="525" y="231" type="line"/>
      <point x="501" y="417"/>
      <point x="397" y="457"/>
      <point x="295" y="457" type="curve" smooth="yes"/>
      <point x="108" y="457"/>
      <point x="36" y="318"/>
      <point x="36" y="215" type="curve" smooth="yes"/>
      <point x="36" y="62"/>
      <point x="131" y="-11"/>
      <point x="275" y="-11" type="curve"/>
      <point x="291" y="-1"/>
      <point x="312" y="10"/>
      <point x="328" y="20" type="curve"/>
      <point x="259" y="42" type="line"/>
      <point x="180" y="17"/>
      <point x="160" y="-46"/>
      <point x="160" y="-82" type="curve" smooth="yes"/>
      <point x="160" y="-151"/>
      <point x="215" y="-198"/>
    </contour>
  </outline>
</glyph>
<glyph name="gcommaaccent" format="2">
  <advance width="636"/>
  <unicode hex="0123"/>
  <anchor x="395" y="762" name="bottom"/>
  <anchor x="340" y="500" name="top"/>
  <outline>
    <contour>
      <point x="366" y="726" type="line"/>
      <point x="307" y="687"/>
      <point x="271" y="599"/>
      <point x="282" y="542" type="curve"/>
      <point x="404" y="541" type="line"/>
      <point x="395" y="588"/>
      <point x="409" y="650"/>
      <point x="438" y="678" type="curve"/>
    </contour>
    <component base="g"/>
  </outline>
</glyph>
<glyph name="Hbar" format="2">
  <advance width="966"/>
  <unicode hex="0126"/>
  <outline>
    <contour>
      <point x="139" y="606" type="line"/>
      <point x="130" y="529" type="line"/>
      <point x="905" y="529" type="line"/>
      <point x="914" y="606" type="line"/>
    </contour>
    <component base="H" xOffset="67"/>
  </outline>
</glyph>
<glyph name="Iogonek" format="2">
  <advance width="330"/>
  <unicode hex="012E"/>
  <outline>
    <contour>
      <point x="97" y="-232" type="curve"/>
      <point x="143" y="-235"/>
      <point x="205" y="-208"/>
      <point x="241" y="-165" type="curve"/>
      <point x="200" y="-91" type="line"/>
      <point x="174" y="-122"/>
      <point x="149" y="-137"/>
      <point x="122" y="-135" type="curve"/>
      <point x="99" y="-134"/>
      <point x="79" y="-124"/>
      <point x="83" y="-90" type="curve" smooth="yes"/>
      <point x="88" y="-48"/>
      <point x="140" y="-26"/>
      <point x="215" y="0" type="curve"/>
      <point x="305" y="736" type="line"/>
      <point x="155" y="736" type="line"/>
      <point x="65" y="0" type="line"/>
      <point x="71" y="25" type="line"/>
      <point x="-8" y="-2"/>
      <point x="-33" y="-72"/>
      <point x="-33" y="-111" type="curve" smooth="yes"/>
      <point x="-33" y="-180"/>
      <point x="22" y="-227"/>
    </contour>
  </outline>
</glyph>
<glyph name="iogonek" format="2">
  <advance width="276"/>
  <unicode hex="012F"/>
  <outline>
    <contour>
      <point x="84" y="-232" type="curve"/>
      <point x="130" y="-235"/>
      <point x="192" y="-208"/>
      <point x="228" y="-165" type="curve"/>
      <point x="187" y="-91" type="line"/>
      <point x="161" y="-122"/>
      <point x="136" y="-137"/>
      <point x="109" y="-135" type="curve"/>
      <point x="86" y="-134"/>
      <point x="66" y="-124"/>
      <point x="70" y="-90" type="curve" smooth="yes"/>
      <point x="74" y="-51"/>
      <point x="117" y="-26"/>
      <point x="181" y="0" type="curve"/>
      <point x="235" y="437" type="line"/>
      <point x="95" y="437" type="line"/>
      <point x="41" y="0" type="line"/>
      <point x="171" y="0" type="line"/>
      <point x="53" y="13" type="line"/>
      <point x="-26" y="-12"/>
      <point x="-46" y="-75"/>
      <point x="-46" y="-111" type="curve" smooth="yes"/>
      <point x="-46" y="-180"/>
      <point x="9" y="-227"/>
    </contour>
    <component base="dotaccentcomb" xOffset="-32" yOffset="-40"/>
  </outline>
</glyph>
<glyph name="idotless" format="2">
  <advance width="284"/>
  <unicode hex="0131"/>
  <anchor x="105" y="0" name="bottom"/>
  <anchor x="140" y="10" name="ogonek"/>
  <anchor x="165" y="437" name="top"/>
  <outline>
    <contour>
      <point x="99" y="437" type="line"/>
      <point x="45" y="0" type="line"/>
      <point x="185" y="0" type="line"/>
      <point x="239" y="437" type="line"/>
    </contour>
  </outline>
</glyph>
<glyph name="Lslash" format="2">
  <advance width="640"/>
  <unicode hex="0141"/>
  <outline>
    <contour>
      <point x="499" y="472" type="line"/>
      <point x="58" y="346" type="line"/>
      <point x="43" y="225" type="line"/>
      <point x="484" y="351" type="line"/>
    </contour>
    <component base="L"/>
  </outline>
</glyph>
<glyph name="lslash" format="2">
  <advance width="316"/>
  <unicode hex="0142"/>
  <anchor x="133" y="0" name="bottom"/>
  <anchor x="160" y="309" name="center"/>
  <anchor x="216" y="776" name="top"/>
  <anchor x="363" y="736" name="topright"/>
  <outline>
    <contour>
      <point x="324" y="413" type="line"/>
      <point x="31" y="346" type="line"/>
      <point x="17" y="225" type="line"/>
      <point x="310" y="292" type="line"/>
    </contour>
    <component base="l" xOffset="13"/>
  </outline>
</glyph>
<glyph name="Eng" format="2">
  <advance width="802"/>
  <unicode hex="014A"/>
  <anchor x="390" y="0" name="bottom"/>
  <anchor x="452" y="700" name="top"/>
  <outline>
    <contour>
      <point x="557" y="-211" type="line"/>
      <point x="647" y="-167"/>
      <point x="693" y="-96"/>
      <point x="705" y="0" type="curve"/>
      <point x="796" y="736" type="line"/>
      <point x="650" y="736" type="line"/>
      <point x="597" y="277" type="line"/>
      <point x="627" y="263" type="line"/>
      <point x="143" y="765" type="line"/>
      <point x="137" y="765" type="line"/>
      <point x="43" y="0" type="line"/>
      <point x="190" y="0" type="line"/>
      <point x="242" y="450" type="line"/>
      <point x="202" y="474" type="line"/>
      <point x="698" y="-30" type="line"/>
      <point x="586" y="163" type="line"/>
      <point x="567" y="8" type="line"/>
      <point x="560" y="-53"/>
      <point x="531" y="-95"/>
      <point x="488" y="-124" type="curve"/>
    </contour>
  </outline>
</glyph>
<glyph name="eng" format="2">
  <advance width="595"/>
  <unicode hex="014B"/>
  <outline>
    <contour>
      <point x="497" y="7" type="curve" smooth="yes"/>
      <point x="536" y="327" type="line"/>
      <point x="543" y="404"/>
      <point x="488" y="458"/>
      <point x="406" y="458" type="curve"/>
      <point x="325" y="458"/>
      <point x="265" y="421"/>
      <point x="228" y="366" type="curve"/>
      <point x="230" y="347" type="line"/>
      <point x="226" y="437" type="line"/>
      <point x="99" y="437" type="line"/>
      <point x="46" y="0" type="line"/>
      <point x="186" y="0" type="line"/>
      <point x="208" y="178" type="line"/>
      <point x="219" y="271"/>
      <point x="268" y="339"/>
      <point x="333" y="339" type="curve"/>
      <point x="378" y="339"/>
      <point x="392" y="314"/>
      <point x="390" y="275" type="curve"/>
      <point x="357" y="8" type="line" smooth="yes"/>
      <point x="349" y="-53"/>
      <point x="322" y="-95"/>
      <point x="279" y="-124" type="curve"/>
      <point x="348" y="-211" type="line"/>
      <point x="437" y="-167"/>
      <point x="485" y="-89"/>
    </contour>
  </outline>
</glyph>
<glyph name="OE" format="2">
  <advance width="1021"/>
  <unicode hex="0152"/>
  <outline>
    <contour>
      <point x="557" y="594" type="curve"/>
      <point x="619" y="731" type="line"/>
      <point x="590" y="739"/>
      <point x="558" y="744"/>
      <point x="525" y="744" type="curve" smooth="yes"/>
      <point x="283" y="744"/>
      <point x="101" y="560"/>
      <point x="101" y="329" type="curve" smooth="yes"/>
      <point x="101" y="141"/>
      <point x="241" y="-8"/>
      <point x="433" y="-8" type="curve" smooth="yes"/>
      <point x="465" y="-8"/>
      <point x="495" y="-4"/>
      <point x="526" y="4" type="curve"/>
      <point x="506" y="139" type="line"/>
      <point x="489" y="135"/>
      <point x="472" y="133"/>
      <point x="455" y="133" type="curve" smooth="yes"/>
      <point x="337" y="133"/>
      <point x="252" y="226"/>
      <point x="252" y="343" type="curve" smooth="yes"/>
      <point x="252" y="493"/>
      <point x="353" y="600"/>
      <point x="508" y="600" type="curve" smooth="yes"/>
      <point x="525" y="600"/>
      <point x="541" y="598"/>
    </contour>
    <contour>
      <point x="567" y="736" type="line"/>
      <point x="477" y="0" type="line"/>
      <point x="963" y="0" type="line"/>
      <point x="980" y="139" type="line"/>
      <point x="644" y="139" type="line"/>
      <point x="664" y="299" type="line"/>
      <point x="945" y="299" type="line"/>
      <point x="961" y="437" type="line"/>
      <point x="680" y="437" type="line"/>
      <point x="701" y="601" type="line"/>
      <point x="1023" y="601" type="line"/>
      <point x="1039" y="736" type="line"/>
    </contour>
  </outline>
</glyph>
<glyph name="oe" format="2">
  <advance width="850"/>
  <unicode hex="0153"/>
  <anchor x="373" y="0" name="bottom"/>
  <anchor x="427" y="437" name="top"/>
  <anchor x="687" y="33" name="ogonek"/>
  <outline>
    <contour>
      <point x="269" y="-13" type="curve" smooth="yes"/>
      <point x="322" y="-13"/>
      <point x="382" y="2"/>
      <point x="422" y="28" type="curve"/>
      <point x="363" y="120" type="line"/>
      <point x="344" y="107"/>
      <point x="321" y="100"/>
      <point x="294" y="100" type="curve" smooth="yes"/>
      <point x="222" y="100"/>
      <point x="178" y="147"/>
      <point x="178" y="207" type="curve" smooth="yes"/>
      <point x="178" y="281"/>
      <point x="232" y="332"/>
      <point x="291" y="332" type="curve" smooth="yes"/>
      <point x="339" y="332"/>
      <point x="372" y="310"/>
      <point x="390" y="293" type="curve"/>
      <point x="469" y="378" type="line"/>
      <point x="430" y="417"/>
      <point x="371" y="447"/>
      <point x="282" y="447" type="curve" smooth="yes"/>
      <point x="115" y="447"/>
      <point x="37" y="312"/>
      <point x="37" y="197" type="curve" smooth="yes"/>
      <point x="37" y="23"/>
      <point x="196" y="-13"/>
    </contour>
    <component base="e" xOffset="295"/>
  </outline>
</glyph>
<glyph name="Uogonek" format="2">
  <advance width="787"/>
  <unicode hex="0172"/>
  <anchor x="528" y="10" name="_ogonek"/>
  <anchor x="363" y="0" name="bottom"/>
  <anchor x="528" y="10" name="ogonek"/>
  <anchor x="456" y="730" name="top"/>
  <anchor x="733" y="630" name="topright"/>
  <outline>
    <contour>
      <point x="361" y="-8" type="curve" smooth="yes"/>
      <point x="406" y="-8"/>
      <point x="435" y="1"/>
      <point x="475" y="17" type="curve"/>
      <point x="408" y="37" type="line"/>
      <point x="329" y="6"/>
      <point x="299" y="-40"/>
      <point x="299" y="-97" type="curve" smooth="yes"/>
      <point x="299" y="-165"/>
      <point x="338" y="-226"/>
      <point x="429" y="-226" type="curve" smooth="yes"/>
      <point x="475" y="-226"/>
      <point x="537" y="-202"/>
      <point x="573" y="-159" type="curve"/>
      <point x="532" y="-85" type="line"/>
      <point x="506" y="-116"/>
      <point x="481" y="-131"/>
      <point x="454" y="-129" type="curve"/>
      <point x="431" y="-128"/>
      <point x="415" y="-105"/>
      <point x="415" y="-81" type="curve" smooth="yes"/>
      <point x="415" y="-40"/>
      <point x="433" y="-10"/>
      <point x="485" y="14" type="curve" smooth="yes"/>
      <point x="587" y="61"/>
      <point x="679" y="151"/>
      <point x="694" y="269" type="curve" smooth="yes"/>
      <point x="751" y="736" type="line"/>
      <point x="601" y="736" type="line"/>
      <point x="544" y="272" type="line" smooth="yes"/>
      <point x="535" y="202"/>
      <point x="460" y="133"/>
      <point x="378" y="133" type="curve" smooth="yes"/>
      <point x="296" y="133"/>
      <point x="239" y="202"/>
      <point x="248" y="272" type="curve" smooth="yes"/>
      <point x="305" y="736" type="line"/>
      <point x="155" y="736" type="line"/>
      <point x="98" y="269" type="line" smooth="yes"/>
      <point x="78" y="109"/>
      <point x="188" y="-8"/>
    </contour>
  </outline>
</glyph>
<glyph name="uogonek" format="2">
  <advance width="584"/>
  <unicode hex="0173"/>
  <outline>
    <contour>
      <point x="407" y="-225" type="curve"/>
      <point x="453" y="-228"/>
      <point x="515" y="-201"/>
      <point x="551" y="-158" type="curve"/>
      <point x="510" y="-84" type="line"/>
      <point x="484" y="-115"/>
      <point x="459" y="-130"/>
      <point x="432" y="-128" type="curve"/>
      <point x="409" y="-127"/>
      <point x="389" y="-117"/>
      <point x="393" y="-83" type="curve" smooth="yes"/>
      <point x="396" y="-48"/>
      <point x="432" y="-22"/>
      <point x="481" y="0" type="curve"/>
      <point x="535" y="437" type="line"/>
      <point x="395" y="437" type="line"/>
      <point x="373" y="259" type="line"/>
      <point x="362" y="166"/>
      <point x="314" y="98"/>
      <point x="252" y="98" type="curve"/>
      <point x="211" y="98"/>
      <point x="199" y="123"/>
      <point x="201" y="162" type="curve"/>
      <point x="235" y="437" type="line"/>
      <point x="95" y="437" type="line"/>
      <point x="55" y="110" type="line"/>
      <point x="48" y="33"/>
      <point x="101" y="-21"/>
      <point x="180" y="-21" type="curve"/>
      <point x="258" y="-21"/>
      <point x="316" y="16"/>
      <point x="353" y="71" type="curve"/>
      <point x="354" y="0" type="line"/>
      <point x="477" y="0" type="line"/>
      <point x="376" y="20" type="line"/>
      <point x="297" y="-9"/>
      <point x="277" y="-62"/>
      <point x="277" y="-104" type="curve" smooth="yes"/>
      <point x="277" y="-173"/>
      <point x="332" y="-220"/>
    </contour>
  </outline>
</glyph>
<glyph name="florin" format="2">
  <advance width="366"/>
  <unicode hex="0192"/>
  <outline>
    <contour>
      <point x="122" y="519" type="curve" smooth="yes"/>
      <point x="113" y="443" type="line"/>
      <point x="39" y="448" type="line"/>
      <point x="23" y="314" type="line"/>
      <point x="96" y="309" type="line"/>
      <point x="73" y="120" type="line" smooth="yes"/>
      <point x="63" y="36"/>
      <point x="25" y="-11"/>
      <point x="-83" y="-12" type="curve"/>
      <point x="-100" y="-150" type="line"/>
      <point x="99" y="-157"/>
      <point x="195" y="-80"/>
      <point x="218" y="106" type="curve" smooth="yes"/>
      <point x="242" y="301" type="line"/>
      <point x="373" y="292" type="line"/>
      <point x="389" y="426" type="line"/>
      <point x="258" y="434" type="line"/>
      <point x="267" y="505" type="line" smooth="yes"/>
      <point x="277" y="589"/>
      <point x="315" y="635"/>
      <point x="423" y="636" type="curve"/>
      <point x="440" y="775" type="line"/>
      <point x="270" y="780"/>
      <point x="145" y="705"/>
    </contour>
  </outline>
</glyph>
<glyph name="Nhookleft" format="2">
  <advance width="829"/>
  <unicode hex="019D"/>
  <outline>
    <contour>
      <point x="696" y="-30" type="line"/>
      <point x="704" y="4" type="line"/>
      <point x="794" y="736" type="line"/>
      <point x="648" y="736" type="line"/>
      <point x="595" y="277" type="line"/>
      <point x="625" y="263" type="line"/>
      <point x="141" y="765" type="line"/>
      <point x="135" y="765" type="line"/>
      <point x="41" y="0" type="line"/>
      <point x="188" y="0" type="line"/>
      <point x="240" y="450" type="line"/>
      <point x="200" y="474" type="line"/>
    </contour>
    <contour>
      <point x="192" y="30" type="line"/>
      <point x="61" y="163" type="line"/>
      <point x="42" y="8" type="line"/>
      <point x="34" y="-53"/>
      <point x="6" y="-95"/>
      <point x="-37" y="-124" type="curve"/>
      <point x="40" y="-211" type="line"/>
      <point x="129" y="-167"/>
      <point x="176" y="-96"/>
      <point x="188" y="0" type="curve"/>
    </contour>
  </outline>
</glyph>
<glyph name="ohorn" format="2">
  <advance width="615"/>
  <unicode hex="01A1"/>
  <anchor x="275" y="0" name="bottom"/>
  <anchor x="275" y="250" name="center"/>
  <anchor x="406" y="10" name="ogonek"/>
  <anchor x="295" y="450" name="top"/>
  <anchor x="437" y="209" name="topright"/>
  <outline>
    <contour>
      <point x="276" y="-12" type="curve" smooth="yes"/>
      <point x="483" y="-12"/>
      <point x="533" y="156"/>
      <point x="533" y="241" type="curve" smooth="yes"/>
      <point x="533" y="382"/>
      <point x="411" y="457"/>
      <point x="294" y="457" type="curve" smooth="yes"/>
      <point x="101" y="457"/>
      <point x="35" y="311"/>
      <point x="35" y="204" type="curve" smooth="yes"/>
      <point x="35" y="51"/>
      <point x="173" y="-12"/>
    </contour>
    <contour>
      <point x="280" y="103" type="curve" smooth="yes"/>
      <point x="243" y="103"/>
      <point x="176" y="121"/>
      <point x="176" y="211" type="curve" smooth="yes"/>
      <point x="176" y="265"/>
      <point x="207" y="343"/>
      <point x="289" y="343" type="curve" smooth="yes"/>
      <point x="319" y="343"/>
      <point x="391" y="329"/>
      <point x="391" y="235" type="curve" smooth="yes"/>
      <point x="391" y="183"/>
      <point x="365" y="103"/>
    </contour>
    <contour>
      <point x="442" y="381" type="curve"/>
      <point x="432" y="298" type="line"/>
      <point x="525" y="292"/>
      <point x="602" y="327"/>
      <point x="640" y="461" type="curve"/>
      <point x="537" y="461" type="line"/>
      <point x="518" y="405"/>
      <point x="489" y="378"/>
    </contour>
  </outline>
</glyph>
<glyph name="Oogonek" format="2">
  <advance width="852"/>
  <unicode hex="01EA"/>
  <anchor x="463" y="0" name="bottom"/>
  <anchor x="463" y="350" name="center"/>
  <anchor x="610" y="10" name="ogonek"/>
  <anchor x="463" y="730" name="top"/>
  <anchor x="40" y="700" name="topleft"/>
  <anchor x="715" y="586" name="topright"/>
  <outline>
    <contour>
      <point x="602" y="36" type="curve"/>
      <point x="480" y="19" type="line"/>
      <point x="401" y="-6"/>
      <point x="381" y="-69"/>
      <point x="381" y="-105" type="curve" smooth="yes"/>
      <point x="381" y="-174"/>
      <point x="436" y="-221"/>
      <point x="511" y="-226" type="curve"/>
      <point x="557" y="-229"/>
      <point x="619" y="-202"/>
      <point x="655" y="-159" type="curve"/>
      <point x="614" y="-85" type="line"/>
      <point x="588" y="-116"/>
      <point x="563" y="-131"/>
      <point x="536" y="-129" type="curve"/>
      <point x="513" y="-128"/>
      <point x="493" y="-114"/>
      <point x="497" y="-78" type="curve" smooth="yes"/>
      <point x="502" y="-31"/>
      <point x="536" y="2"/>
      <point x="591" y="27" type="curve" smooth="yes"/>
      <point x="740" y="95"/>
      <point x="821" y="264"/>
      <point x="821" y="393" type="curve" smooth="yes"/>
      <point x="821" y="639"/>
      <point x="636" y="743"/>
      <point x="468" y="743" type="curve" smooth="yes"/>
      <point x="198" y="743"/>
      <point x="68" y="520"/>
      <point x="68" y="343" type="curve" smooth="yes"/>
      <point x="68" y="97"/>
      <point x="253" y="-7"/>
      <point x="421" y="-7" type="curve" smooth="yes"/>
      <point x="494" y="-7"/>
      <point x="549" y="9"/>
    </contour>
    <contour>
      <point x="423" y="133" type="curve" smooth="yes"/>
      <point x="301" y="133"/>
      <point x="218" y="235"/>
      <point x="218" y="351" type="curve" smooth="yes"/>
      <point x="218" y="460"/>
      <point x="280" y="603"/>
      <point x="462" y="603" type="curve" smooth="yes"/>
      <point x="584" y="603"/>
      <point x="671" y="501"/>
      <point x="671" y="385" type="curve" smooth="yes"/>
      <point x="671" y="276"/>
      <point x="605" y="133"/>
    </contour>
  </outline>
</glyph>
<glyph name="oogonek" format="2">
  <advance width="574"/>
  <unicode hex="01EB"/>
  <anchor x="406" y="10" name="ogonek"/>
  <outline>
    <contour>
      <point x="411" y="35" type="curve"/>
      <point x="288" y="35" type="line"/>
      <point x="209" y="4"/>
      <point x="177" y="-60"/>
      <point x="177" y="-105" type="curve" smooth="yes"/>
      <point x="177" y="-174"/>
      <point x="232" y="-221"/>
      <point x="307" y="-226" type="curve"/>
      <point x="353" y="-229"/>
      <point x="415" y="-202"/>
      <point x="451" y="-159" type="curve"/>
      <point x="410" y="-85" type="line"/>
      <point x="384" y="-116"/>
      <point x="359" y="-131"/>
      <point x="332" y="-129" type="curve"/>
      <point x="309" y="-128"/>
      <point x="289" y="-113"/>
      <point x="293" y="-84" type="curve" smooth="yes"/>
      <point x="300" y="-32"/>
      <point x="365" y="-17"/>
      <point x="434" y="33" type="curve" smooth="yes"/>
      <point x="512" y="89"/>
      <point x="533" y="184"/>
      <point x="533" y="241" type="curve" smooth="yes"/>
      <point x="533" y="382"/>
      <point x="411" y="457"/>
      <point x="294" y="457" type="curve" smooth="yes"/>
      <point x="101" y="457"/>
      <point x="35" y="311"/>
      <point x="35" y="204" type="curve" smooth="yes"/>
      <point x="35" y="51"/>
      <point x="173" y="-12"/>
      <point x="276" y="-12" type="curve" smooth="yes"/>
      <point x="344" y="-12"/>
      <point x="374" y="8"/>
    </contour>
    <contour>
      <point x="280" y="103" type="curve" smooth="yes"/>
      <point x="243" y="103"/>
      <point x="176" y="121"/>
      <point x="176" y="211" type="curve" smooth="yes"/>
      <point x="176" y="265"/>
      <point x="207" y="343"/>
      <point x="289" y="343" type="curve" smooth="yes"/>
      <point x="319" y="343"/>
      <point x="391" y="329"/>
      <point x="391" y="235" type="curve" smooth="yes"/>
      <point x="391" y="183"/>
      <point x="365" y="103"/>
    </contour>
  </outline>
</glyph>
<glyph name="jdotless" format="2">
  <advance width="297"/>
  <unicode hex="0237"/>
  <anchor x="122" y="0" name="bottom"/>
  <anchor x="177" y="437" name="top"/>
  <outline>
    <contour>
      <point x="-20" y="-124" type="curve"/>
      <point x="50" y="-211" type="line"/>
      <point x="140" y="-167"/>
      <point x="186" y="-96"/>
      <point x="198" y="0" type="curve"/>
      <point x="252" y="437" type="line"/>
      <point x="112" y="437" type="line"/>
      <point x="59" y="8" type="line"/>
      <point x="52" y="-53"/>
      <point x="23" y="-95"/>
    </contour>
  </outline>
</glyph>
<glyph name="schwa" format="2">
  <advance width="555"/>
  <unicode hex="0259"/>
  <anchor x="292" y="457" name="bottom"/>
  <anchor x="163" y="404" name="ogonek"/>
  <anchor x="254" y="-43" name="top"/>
  <outline>
    <contour>
      <point x="262" y="330" type="curve" smooth="yes"/>
      <point x="310" y="330"/>
      <point x="376" y="306"/>
      <point x="376" y="206" type="curve" smooth="yes"/>
      <point x="376" y="148"/>
      <point x="344" y="89"/>
      <point x="262" y="89" type="curve" smooth="yes"/>
      <point x="221" y="89"/>
      <point x="187" y="114"/>
      <point x="176" y="159" type="curve"/>
      <point x="127" y="144" type="line"/>
      <point x="401" y="215" type="line"/>
      <point x="379" y="293" type="line"/>
      <point x="27" y="206" type="line"/>
      <point x="51" y="20"/>
      <point x="155" y="-20"/>
      <point x="257" y="-20" type="curve" smooth="yes"/>
      <point x="444" y="-20"/>
      <point x="516" y="119"/>
      <point x="516" y="222" type="curve" smooth="yes"/>
      <point x="516" y="375"/>
      <point x="421" y="448"/>
      <point x="277" y="448" type="curve"/>
      <point x="232" y="448"/>
      <point x="181" y="435"/>
      <point x="137" y="414" type="curve"/>
      <point x="186" y="306" type="line"/>
      <point x="212" y="320"/>
      <point x="236" y="330"/>
    </contour>
  </outline>
</glyph>
<glyph name="caron" format="2">
  <advance width="475"/>
  <unicode hex="02C7"/>
  <outline>
    <contour>
      <point x="243" y="673" type="line"/>
      <point x="117" y="673" type="line"/>
      <point x="284" y="489" type="line"/>
      <point x="285" y="489" type="line"/>
      <point x="492" y="673" type="line"/>
      <point x="366" y="673" type="line"/>
      <point x="277" y="589" type="line"/>
      <point x="312" y="599" type="line"/>
    </contour>
  </outline>
</glyph>
<glyph name="breve" format="2">
  <advance width="433"/>
  <unicode hex="02D8"/>
  <outline>
    <contour>
      <point x="249" y="470" type="curve"/>
      <point x="342" y="464"/>
      <point x="410" y="518"/>
      <point x="438" y="667" type="curve"/>
      <point x="346" y="667" type="line"/>
      <point x="327" y="596"/>
      <point x="307" y="560"/>
      <point x="261" y="563" type="curve"/>
      <point x="214" y="566"/>
      <point x="203" y="604"/>
      <point x="198" y="667" type="curve"/>
      <point x="105" y="667" type="line"/>
      <point x="112" y="540"/>
      <point x="156" y="476"/>
    </contour>
  </outline>
</glyph>
<glyph name="ring" format="2">
  <advance width="323"/>
  <unicode hex="02DA"/>
  <outline>
    <contour>
      <point x="94" y="573" type="curve"/>
      <point x="86" y="510"/>
      <point x="129" y="465"/>
      <point x="192" y="461" type="curve"/>
      <point x="255" y="457"/>
      <point x="308" y="496"/>
      <point x="315" y="559" type="curve"/>
      <point x="323" y="623"/>
      <point x="280" y="666"/>
      <point x="218" y="670" type="curve"/>
      <point x="153" y="674"/>
      <point x="101" y="637"/>
    </contour>
    <contour>
      <point x="166" y="566" type="curve"/>
      <point x="169" y="594"/>
      <point x="186" y="607"/>
      <point x="210" y="606" type="curve"/>
      <point x="234" y="604"/>
      <point x="247" y="590"/>
      <point x="244" y="562" type="curve"/>
      <point x="241" y="537"/>
      <point x="224" y="522"/>
      <point x="200" y="523" type="curve"/>
      <point x="176" y="525"/>
      <point x="163" y="541"/>
    </contour>
  </outline>
</glyph>
<glyph name="hungarumlaut" format="2">
  <advance width="551"/>
  <unicode hex="02DD"/>
  <outline>
    <contour>
      <point x="346" y="624" type="curve"/>
      <point x="221" y="624" type="line"/>
      <point x="184" y="579"/>
      <point x="148" y="533"/>
      <point x="112" y="489" type="curve"/>
      <point x="197" y="489" type="line"/>
      <point x="246" y="533"/>
      <point x="297" y="579"/>
    </contour>
    <contour>
      <point x="568" y="624" type="curve"/>
      <point x="443" y="624" type="line"/>
      <point x="406" y="579"/>
      <point x="370" y="533"/>
      <point x="334" y="489" type="curve"/>
      <point x="419" y="489" type="line"/>
      <point x="468" y="533"/>
      <point x="519" y="579"/>
    </contour>
  </outline>
</glyph>
<glyph name="hookabovecomb" format="2">
  <unicode hex="0309"/>
  <anchor x="174" y="532" name="_top"/>
  <anchor x="195" y="774" name="top"/>
  <outline>
    <contour>
      <point x="157" y="614" type="curve"/>
      <point x="181" y="576" type="line"/>
      <point x="259" y="611"/>
      <point x="282" y="658"/>
      <point x="282" y="692" type="curve" smooth="yes"/>
      <point x="282" y="731"/>
      <point x="259" y="773"/>
      <point x="197" y="773" type="curve" smooth="yes"/>
      <point x="157" y="773"/>
      <point x="116" y="752"/>
      <point x="89" y="708" type="curve"/>
      <point x="135" y="675" type="line"/>
      <point x="143" y="688"/>
      <point x="157" y="699"/>
      <point x="173" y="699" type="curve" smooth="yes"/>
      <point x="197" y="699"/>
      <point x="204" y="685"/>
      <point x="202" y="665" type="curve"/>
      <point x="199" y="642"/>
      <point x="181" y="629"/>
    </contour>
  </outline>
</glyph>
<glyph name="breveinvertedcomb" format="2">
  <unicode hex="0311"/>
  <anchor x="409" y="457" name="_top"/>
  <anchor x="436" y="687" name="top"/>
  <outline>
    <contour>
      <point x="436" y="687" type="curve"/>
      <point x="343" y="693"/>
      <point x="275" y="639"/>
      <point x="247" y="490" type="curve"/>
      <point x="339" y="490" type="line"/>
      <point x="358" y="561"/>
      <point x="378" y="597"/>
      <point x="424" y="594" type="curve"/>
      <point x="471" y="591"/>
      <point x="482" y="553"/>
      <point x="487" y="490" type="curve"/>
      <point x="580" y="490" type="line"/>
      <point x="573" y="617"/>
      <point x="529" y="681"/>
    </contour>
  </outline>
</glyph>
<glyph name="commaturnedabovecomb" format="2">
  <unicode hex="0312"/>
  <anchor x="130" y="437" name="_top"/>
  <anchor x="165" y="725" name="top"/>
  <outline>
    <contour>
      <point x="144" y="711" type="line"/>
      <point x="85" y="672"/>
      <point x="49" y="584"/>
      <point x="60" y="527" type="curve"/>
      <point x="182" y="526" type="line"/>
      <point x="173" y="573"/>
      <point x="187" y="635"/>
      <point x="216" y="663" type="curve"/>
    </contour>
  </outline>
</glyph>
<glyph name="horncomb" format="2">
  <unicode hex="031B"/>
  <anchor x="110" y="704" name="_topright"/>
  <anchor x="109" y="570" name="topright"/>
  <outline>
    <contour>
      <point x="114" y="742" type="curve"/>
      <point x="104" y="659" type="line"/>
      <point x="197" y="653"/>
      <point x="274" y="688"/>
      <point x="312" y="822" type="curve"/>
      <point x="209" y="822" type="line"/>
      <point x="190" y="766"/>
      <point x="161" y="739"/>
    </contour>
  </outline>
</glyph>
<glyph name="strokeshortcomb" format="2">
  <unicode hex="0335"/>
  <anchor x="191" y="276" name="_center"/>
  <outline>
    <contour>
      <point x="57" y="347" type="line"/>
      <point x="39" y="207" type="line"/>
      <point x="314" y="207" type="line"/>
      <point x="332" y="347" type="line"/>
    </contour>
  </outline>
</glyph>
<glyph name="Delta" format="2">
  <advance width="734"/>
  <unicode hex="0394"/>
  <outline>
    <contour>
      <point x="-19" y="0" type="line"/>
      <point x="691" y="0" type="line"/>
      <point x="435" y="765" type="line"/>
      <point x="430" y="765" type="line"/>
    </contour>
    <contour>
      <point x="519" y="80" type="line"/>
      <point x="601" y="140" type="line"/>
      <point x="83" y="140" type="line"/>
      <point x="165" y="62" type="line"/>
      <point x="466" y="572" type="line"/>
      <point x="346" y="594" type="line"/>
    </contour>
  </outline>
</glyph>
<glyph name="pi" format="2">
  <advance width="444"/>
  <unicode hex="03C0"/>
  <outline>
    <contour>
      <point x="54" y="368" type="line"/>
      <point x="39" y="247" type="line"/>
      <point x="97" y="247" type="line"/>
      <point x="67" y="0" type="line"/>
      <point x="192" y="0" type="line"/>
      <point x="222" y="247" type="line"/>
      <point x="274" y="247" type="line"/>
      <point x="244" y="0" type="line"/>
      <point x="368" y="0" type="line"/>
      <point x="398" y="247" type="line"/>
      <point x="461" y="247" type="line"/>
      <point x="476" y="368" type="line"/>
    </contour>
  </outline>
</glyph>
<glyph name="Germandbls" format="2">
  <advance width="835"/>
  <unicode hex="1E9E"/>
  <outline>
    <contour>
      <point x="535" y="-8" type="curve"/>
      <point x="686" y="-8"/>
      <point x="780" y="91"/>
      <point x="793" y="203" type="curve"/>
      <point x="809" y="333"/>
      <point x="725" y="379"/>
      <point x="655" y="423" type="curve"/>
      <point x="613" y="452"/>
      <point x="565" y="478"/>
      <point x="571" y="530" type="curve"/>
      <point x="576" y="568"/>
      <point x="600" y="595"/>
      <point x="636" y="595" type="curve"/>
      <point x="657" y="595"/>
      <point x="671" y="587"/>
      <point x="679" y="580" type="curve"/>
      <point x="730" y="687" type="line"/>
      <point x="690" y="736"/>
      <point x="570" y="786"/>
      <point x="464" y="786" type="curve"/>
      <point x="243" y="786"/>
      <point x="142" y="637"/>
      <point x="116" y="421" type="curve"/>
      <point x="64" y="0" type="line"/>
      <point x="210" y="0" type="line"/>
      <point x="261" y="417" type="line"/>
      <point x="283" y="594"/>
      <point x="358" y="671"/>
      <point x="464" y="671" type="curve"/>
      <point x="530" y="671"/>
      <point x="591" y="649"/>
      <point x="634" y="597" type="curve"/>
      <point x="688" y="669" type="line"/>
      <point x="675" y="685"/>
      <point x="656" y="693"/>
      <point x="625" y="693" type="curve"/>
      <point x="516" y="685"/>
      <point x="438" y="620"/>
      <point x="424" y="506" type="curve"/>
      <point x="411" y="399"/>
      <point x="492" y="339"/>
      <point x="557" y="302" type="curve"/>
      <point x="605" y="274"/>
      <point x="648" y="247"/>
      <point x="642" y="203" type="curve"/>
      <point x="634" y="139"/>
      <point x="580" y="120"/>
      <point x="538" y="120" type="curve"/>
      <point x="486" y="120"/>
      <point x="417" y="146"/>
      <point x="371" y="184" type="curve"/>
      <point x="293" y="71" type="line"/>
      <point x="363" y="16"/>
      <point x="451" y="-8"/>
    </contour>
  </outline>
</glyph>
<glyph name="endash" format="2">
  <advance width="519"/>
  <unicode hex="2013"/>
  <outline>
    <contour>
      <point x="137" y="286" type="line"/>
      <point x="122" y="165" type="line"/>
      <point x="429" y="165" type="line"/>
      <point x="444" y="286" type="line"/>
    </contour>
  </outline>
</glyph>
<glyph name="emdash" format="2">
  <advance width="714"/>
  <unicode hex="2014"/>
  <outline>
    <contour>
      <point x="136" y="286" type="line"/>
      <point x="121" y="165" type="line"/>
      <point x="633" y="165" type="line"/>
      <point x="648" y="286" type="line"/>
    </contour>
  </outline>
</glyph>
<glyph name="quoteleft" format="2">
  <advance width="167"/>
  <unicode hex="2018"/>
  <outline>
    <contour>
      <point x="206" y="602" type="curve"/>
      <point x="206" y="602" type="line"/>
      <point x="181" y="629"/>
      <point x="171" y="671"/>
      <point x="186" y="718" type="curve"/>
      <point x="163" y="720"/>
      <point x="139" y="723"/>
      <point x="115" y="725" type="curve"/>
      <point x="97" y="668"/>
      <point x="108" y="613"/>
      <point x="140" y="574" type="curve"/>
      <point x="163" y="583"/>
      <point x="184" y="592"/>
    </contour>
  </outline>
</glyph>
<glyph name="quoteright" format="2">
  <advance width="167"/>
  <unicode hex="2019"/>
  <outline>
    <contour>
      <point x="154" y="574" type="curve"/>
      <point x="154" y="574" type="line"/>
      <point x="196" y="613"/>
      <point x="221" y="668"/>
      <point x="217" y="725" type="curve"/>
      <point x="193" y="723"/>
      <point x="167" y="720"/>
      <point x="144" y="718" type="curve"/>
      <point x="147" y="671"/>
      <point x="128" y="629"/>
      <point x="96" y="602" type="curve"/>
      <point x="116" y="592"/>
      <point x="135" y="583"/>
    </contour>
  </outline>
</glyph>
<glyph name="quotesinglbase" format="2">
  <advance width="149"/>
  <unicode hex="201A"/>
  <outline>
    <contour>
      <point x="74" y="-58" type="curve"/>
      <point x="74" y="-58" type="line"/>
      <point x="115" y="-19"/>
      <point x="140" y="37"/>
      <point x="136" y="94" type="curve"/>
      <point x="112" y="92"/>
      <point x="87" y="89"/>
      <point x="63" y="87" type="curve"/>
      <point x="67" y="40"/>
      <point x="47" y="-2"/>
      <point x="15" y="-30" type="curve"/>
      <point x="35" y="-39"/>
      <point x="54" y="-48"/>
    </contour>
  </outline>
</glyph>
<glyph name="quotedblleft" format="2">
  <advance width="253"/>
  <unicode hex="201C"/>
  <outline>
    <contour>
      <point x="211" y="602" type="curve"/>
      <point x="211" y="602" type="line"/>
      <point x="186" y="629"/>
      <point x="176" y="671"/>
      <point x="191" y="718" type="curve"/>
      <point x="168" y="720"/>
      <point x="144" y="723"/>
      <point x="120" y="725" type="curve"/>
      <point x="102" y="668"/>
      <point x="113" y="613"/>
      <point x="145" y="574" type="curve"/>
      <point x="168" y="583"/>
      <point x="189" y="592"/>
    </contour>
    <contour>
      <point x="317" y="602" type="curve"/>
      <point x="317" y="602" type="line"/>
      <point x="292" y="629"/>
      <point x="282" y="671"/>
      <point x="297" y="718" type="curve"/>
      <point x="274" y="720"/>
      <point x="250" y="723"/>
      <point x="226" y="725" type="curve"/>
      <point x="208" y="668"/>
      <point x="219" y="613"/>
      <point x="251" y="574" type="curve"/>
      <point x="274" y="583"/>
      <point x="295" y="592"/>
    </contour>
  </outline>
</glyph>
<glyph name="quotedblright" format="2">
  <advance width="253"/>
  <unicode hex="201D"/>
  <outline>
    <contour>
      <point x="124" y="574" type="curve"/>
      <point x="124" y="574" type="line"/>
      <point x="166" y="613"/>
      <point x="191" y="668"/>
      <point x="187" y="725" type="curve"/>
      <point x="163" y="723"/>
      <point x="137" y="720"/>
      <point x="114" y="718" type="curve"/>
      <point x="117" y="671"/>
      <point x="98" y="629"/>
      <point x="66" y="602" type="curve"/>
      <point x="86" y="592"/>
      <point x="105" y="583"/>
    </contour>
    <contour>
      <point x="230" y="574" type="curve"/>
      <point x="230" y="574" type="line"/>
      <point x="272" y="613"/>
      <point x="297" y="668"/>
      <point x="293" y="725" type="curve"/>
      <point x="269" y="723"/>
      <point x="243" y="720"/>
      <point x="220" y="718" type="curve"/>
      <point x="223" y="671"/>
      <point x="204" y="629"/>
      <point x="172" y="602" type="curve"/>
      <point x="192" y="592"/>
      <point x="211" y="583"/>
    </contour>
  </outline>
</glyph>
<glyph name="quotedblbase" format="2">
  <advance width="410"/>
  <unicode hex="201E"/>
  <outline>
    <contour>
      <point x="74" y="-58" type="curve"/>
      <point x="74" y="-58" type="line"/>
      <point x="115" y="-19"/>
      <point x="140" y="37"/>
      <point x="136" y="94" type="curve"/>
      <point x="112" y="92"/>
      <point x="87" y="89"/>
      <point x="63" y="87" type="curve"/>
      <point x="67" y="40"/>
      <point x="47" y="-2"/>
      <point x="15" y="-30" type="curve"/>
      <point x="35" y="-39"/>
      <point x="54" y="-48"/>
    </contour>
    <contour>
      <point x="180" y="-58" type="curve"/>
      <point x="180" y="-58" type="line"/>
      <point x="221" y="-19"/>
      <point x="246" y="37"/>
      <point x="242" y="94" type="curve"/>
      <point x="218" y="92"/>
      <point x="193" y="89"/>
      <point x="169" y="87" type="curve"/>
      <point x="173" y="40"/>
      <point x="153" y="-2"/>
      <point x="121" y="-30" type="curve"/>
      <point x="141" y="-39"/>
      <point x="160" y="-48"/>
    </contour>
  </outline>
</glyph>
<glyph name="dagger" format="2">
  <advance width="300"/>
  <unicode hex="2020"/>
  <outline>
    <contour>
      <point x="77" y="483" type="line"/>
      <point x="62" y="361" type="line"/>
      <point x="325" y="361" type="line"/>
      <point x="340" y="483" type="line"/>
    </contour>
    <contour>
      <point x="165" y="634" type="line"/>
      <point x="83" y="-29" type="line"/>
      <point x="209" y="-29" type="line"/>
      <point x="291" y="634" type="line"/>
    </contour>
  </outline>
</glyph>
<glyph name="daggerdbl" format="2">
  <advance width="300"/>
  <unicode hex="2021"/>
  <outline>
    <contour>
      <point x="37" y="304" type="line"/>
      <point x="22" y="182" type="line"/>
      <point x="323" y="182" type="line"/>
      <point x="338" y="304" type="line"/>
    </contour>
    <contour>
      <point x="77" y="483" type="line"/>
      <point x="62" y="361" type="line"/>
      <point x="325" y="361" type="line"/>
      <point x="340" y="483" type="line"/>
    </contour>
    <contour>
      <point x="164" y="634" type="line"/>
      <point x="83" y="-29" type="line"/>
      <point x="209" y="-29" type="line"/>
      <point x="290" y="634" type="line"/>
    </contour>
  </outline>
</glyph>
<glyph name="bullet" format="2">
  <advance width="488"/>
  <unicode hex="2022"/>
  <outline>
    <contour>
      <point x="116" y="289" type="curve" smooth="yes"/>
      <point x="116" y="289" type="line" smooth="yes"/>
      <point x="116" y="205"/>
      <point x="177" y="142"/>
      <point x="261" y="142" type="curve" smooth="yes"/>
      <point x="360" y="142"/>
      <point x="449" y="222"/>
      <point x="449" y="323" type="curve" smooth="yes"/>
      <point x="449" y="406"/>
      <point x="387" y="473"/>
      <point x="302" y="473" type="curve" smooth="yes"/>
      <point x="204" y="473"/>
      <point x="116" y="389"/>
    </contour>
  </outline>
</glyph>
<glyph name="ellipsis" format="2">
  <advance width="501"/>
  <unicode hex="2026"/>
  <outline>
    <contour>
      <point x="23" y="64" type="curve" smooth="yes"/>
      <point x="23" y="64" type="line" smooth="yes"/>
      <point x="23" y="25"/>
      <point x="54" y="0"/>
      <point x="87" y="0" type="curve" smooth="yes"/>
      <point x="122" y="0"/>
      <point x="166" y="31"/>
      <point x="166" y="79" type="curve" smooth="yes"/>
      <point x="166" y="116"/>
      <point x="136" y="145"/>
      <point x="105" y="145" type="curve" smooth="yes"/>
      <point x="66" y="145"/>
      <point x="23" y="110"/>
    </contour>
    <contour>
      <point x="190" y="64" type="curve" smooth="yes"/>
      <point x="190" y="64" type="line" smooth="yes"/>
      <point x="190" y="25"/>
      <point x="221" y="0"/>
      <point x="254" y="0" type="curve" smooth="yes"/>
      <point x="289" y="0"/>
      <point x="333" y="31"/>
      <point x="333" y="79" type="curve" smooth="yes"/>
      <point x="333" y="116"/>
      <point x="303" y="145"/>
      <point x="272" y="145" type="curve" smooth="yes"/>
      <point x="233" y="145"/>
      <point x="190" y="110"/>
    </contour>
    <contour>
      <point x="357" y="64" type="curve" smooth="yes"/>
      <point x="357" y="64" type="line" smooth="yes"/>
      <point x="357" y="25"/>
      <point x="388" y="0"/>
      <point x="421" y="0" type="curve" smooth="yes"/>
      <point x="456" y="0"/>
      <point x="500" y="31"/>
      <point x="500" y="79" type="curve" smooth="yes"/>
      <point x="500" y="116"/>
      <point x="470" y="145"/>
      <point x="439" y="145" type="curve" smooth="yes"/>
      <point x="400" y="145"/>
      <point x="357" y="110"/>
    </contour>
  </outline>
</glyph>
<glyph name="guilsinglleft" format="2">
  <advance width="399"/>
  <unicode hex="2039"/>
  <outline>
    <contour>
      <point x="149" y="244" type="curve"/>
      <point x="298" y="39" type="line"/>
      <point x="315" y="181" type="line"/>
      <point x="315" y="181"/>
      <point x="282" y="244"/>
      <point x="282" y="244" type="curve"/>
      <point x="282" y="244"/>
      <point x="331" y="306"/>
      <point x="331" y="306" type="curve"/>
      <point x="348" y="448" type="line"/>
      <point x="348" y="448"/>
      <point x="149" y="244"/>
    </contour>
  </outline>
</glyph>
<glyph name="guilsinglright" format="2">
  <advance width="400"/>
  <unicode hex="203A"/>
  <outline>
    <contour>
      <point x="264" y="244" type="curve"/>
      <point x="115" y="39" type="line"/>
      <point x="98" y="181" type="line"/>
      <point x="98" y="181"/>
      <point x="131" y="244"/>
      <point x="131" y="244" type="curve"/>
      <point x="131" y="244"/>
      <point x="82" y="306"/>
      <point x="82" y="306" type="curve"/>
      <point x="65" y="448" type="line"/>
      <point x="65" y="448"/>
      <point x="264" y="244"/>
    </contour>
  </outline>
</glyph>
<glyph name="fraction" format="2">
  <advance width="300"/>
  <unicode hex="2044"/>
  <outline>
    <contour>
      <point x="450" y="770" type="curve"/>
      <point x="324" y="770" type="line"/>
      <point x="197" y="513"/>
      <point x="72" y="257"/>
      <point x="-55" y="0" type="curve"/>
      <point x="71" y="0" type="line"/>
      <point x="198" y="257"/>
      <point x="323" y="513"/>
    </contour>
  </outline>
</glyph>
<glyph name="colonsign" format="2">
  <advance width="699"/>
  <unicode hex="20A1"/>
  <outline>
    <contour>
      <point x="627" y="818" type="line"/>
      <point x="496" y="818" type="line"/>
      <point x="56" y="-75" type="line"/>
      <point x="187" y="-75" type="line"/>
    </contour>
    <contour>
      <point x="813" y="818" type="line"/>
      <point x="681" y="818" type="line"/>
      <point x="241" y="-75" type="line"/>
      <point x="373" y="-75" type="line"/>
    </contour>
    <component base="C"/>
  </outline>
</glyph>
<glyph name="naira" format="2">
  <advance width="873"/>
  <unicode hex="20A6"/>
  <anchor x="431" y="0" name="bottom"/>
  <anchor x="493" y="700" name="top"/>
  <outline>
    <contour>
      <point x="481" y="443" type="line"/>
      <point x="469" y="346" type="line"/>
      <point x="872" y="346" type="line"/>
      <point x="884" y="443" type="line"/>
    </contour>
    <contour>
      <point x="416" y="346" type="line"/>
      <point x="428" y="443" type="line"/>
      <point x="41" y="443" type="line"/>
      <point x="29" y="346" type="line"/>
    </contour>
    <contour>
      <point x="743" y="-30" type="line"/>
      <point x="837" y="736" type="line"/>
      <point x="691" y="736" type="line"/>
      <point x="638" y="277" type="line"/>
      <point x="668" y="263" type="line"/>
      <point x="184" y="765" type="line"/>
      <point x="178" y="765" type="line"/>
      <point x="84" y="0" type="line"/>
      <point x="231" y="0" type="line"/>
      <point x="283" y="450" type="line"/>
      <point x="243" y="474" type="line"/>
      <point x="739" y="-30" type="line"/>
    </contour>
  </outline>
</glyph>
<glyph name="peseta" format="2">
  <advance width="683"/>
  <unicode hex="20A7"/>
  <outline>
    <contour>
      <point x="579" y="535" type="line"/>
      <point x="579" y="438" type="line"/>
      <point x="695" y="438" type="line"/>
      <point x="695" y="535" type="line"/>
    </contour>
    <contour>
      <point x="172" y="438" type="line"/>
      <point x="172" y="535" type="line"/>
      <point x="54" y="535" type="line"/>
      <point x="54" y="438" type="line"/>
    </contour>
    <component base="P" xOffset="-11"/>
  </outline>
</glyph>
<glyph name="euro" format="2">
  <advance width="764"/>
  <unicode hex="20AC"/>
  <outline>
    <contour>
      <point x="85" y="501" type="line"/>
      <point x="71" y="388" type="line"/>
      <point x="460" y="388" type="line"/>
      <point x="474" y="501" type="line"/>
    </contour>
    <contour>
      <point x="66" y="343" type="line"/>
      <point x="52" y="230" type="line"/>
      <point x="440" y="230" type="line"/>
      <point x="454" y="343" type="line"/>
    </contour>
    <component base="C" xOffset="68"/>
  </outline>
</glyph>
<glyph name="kip" format="2">
  <advance width="714"/>
  <unicode hex="20AD"/>
  <outline>
    <contour>
      <point x="84" y="449" type="line"/>
      <point x="66" y="309" type="line"/>
      <point x="624" y="309" type="line"/>
      <point x="642" y="449" type="line"/>
    </contour>
    <component base="K"/>
  </outline>
</glyph>
<glyph name="peso" format="2">
  <advance width="657"/>
  <unicode hex="20B1"/>
  <outline>
    <contour>
      <point x="514" y="588" type="line"/>
      <point x="502" y="491" type="line"/>
      <point x="675" y="491" type="line"/>
      <point x="687" y="588" type="line"/>
    </contour>
    <contour>
      <point x="518" y="457" type="line"/>
      <point x="506" y="360" type="line"/>
      <point x="659" y="360" type="line"/>
      <point x="671" y="457" type="line"/>
    </contour>
    <contour>
      <point x="176" y="360" type="line"/>
      <point x="188" y="457" type="line"/>
      <point x="44" y="457" type="line"/>
      <point x="32" y="360" type="line"/>
    </contour>
    <contour>
      <point x="192" y="491" type="line"/>
      <point x="204" y="588" type="line"/>
      <point x="60" y="588" type="line"/>
      <point x="48" y="491" type="line"/>
    </contour>
    <component base="P" xOffset="-28"/>
  </outline>
</glyph>
<glyph name="manat" format="2">
  <advance width="787"/>
  <unicode hex="20BC"/>
  <outline>
    <contour>
      <point x="402" y="831" type="line"/>
      <point x="300" y="0" type="line"/>
      <point x="426" y="0" type="line"/>
      <point x="528" y="831" type="line"/>
    </contour>
    <contour>
      <point x="573" y="464" type="curve" smooth="yes"/>
      <point x="516" y="0" type="line"/>
      <point x="661" y="0" type="line"/>
      <point x="718" y="467" type="line" smooth="yes"/>
      <point x="738" y="629"/>
      <point x="620" y="744"/>
      <point x="455" y="744" type="curve" smooth="yes"/>
      <point x="455" y="744" type="line" smooth="yes"/>
      <point x="289" y="744"/>
      <point x="142" y="629"/>
      <point x="122" y="467" type="curve" smooth="yes"/>
      <point x="65" y="0" type="line"/>
      <point x="208" y="0" type="line"/>
      <point x="265" y="464" type="line" smooth="yes"/>
      <point x="273" y="534"/>
      <point x="349" y="603"/>
      <point x="438" y="603" type="curve" smooth="yes"/>
      <point x="520" y="603"/>
      <point x="581" y="534"/>
    </contour>
  </outline>
</glyph>
<glyph name="ruble" format="2">
  <advance width="589"/>
  <unicode hex="20BD"/>
  <outline>
    <contour>
      <point x="13" y="197" type="line"/>
      <point x="-2" y="69" type="line"/>
      <point x="308" y="69" type="line"/>
      <point x="323" y="197" type="line"/>
    </contour>
    <contour>
      <point x="34" y="371" type="line"/>
      <point x="19" y="243" type="line"/>
      <point x="319" y="243" type="line"/>
      <point x="334" y="371" type="line"/>
    </contour>
    <component base="P" xOffset="-29"/>
  </outline>
</glyph>
<glyph name="numero" format="2">
  <advance width="1374"/>
  <unicode hex="2116"/>
  <outline>
    <contour>
      <point x="885" y="233" type="line"/>
      <point x="871" y="111" type="line"/>
      <point x="1278" y="111" type="line"/>
      <point x="1292" y="233" type="line"/>
    </contour>
    <component base="N"/>
    <component base="o" xOffset="837" yOffset="294"/>
  </outline>
</glyph>
<glyph name="trademark" format="2">
  <advance width="587"/>
  <unicode hex="2122"/>
  <outline>
    <contour>
      <point x="499" y="619" type="line"/>
      <point x="481" y="477" type="line"/>
      <point x="568" y="477" type="line"/>
      <point x="602" y="747" type="line"/>
      <point x="443" y="597" type="line"/>
      <point x="455" y="597" type="line"/>
      <point x="335" y="747" type="line"/>
      <point x="301" y="477" type="line"/>
      <point x="384" y="477" type="line"/>
      <point x="401" y="615" type="line"/>
      <point x="367" y="592" type="line"/>
      <point x="435" y="480" type="line"/>
      <point x="528" y="592" type="line"/>
    </contour>
    <contour>
      <point x="104" y="736" type="line"/>
      <point x="94" y="656" type="line"/>
      <point x="145" y="656" type="line"/>
      <point x="123" y="477" type="line"/>
      <point x="213" y="477" type="line"/>
      <point x="235" y="656" type="line"/>
      <point x="286" y="656" type="line"/>
      <point x="296" y="736" type="line"/>
    </contour>
  </outline>
</glyph>
<glyph name="Ohm" format="2">
  <advance width="833"/>
  <unicode hex="2126"/>
  <outline>
    <contour>
      <point x="507" y="121" type="curve"/>
      <point x="499" y="60" type="line"/>
      <point x="544" y="71"/>
      <point x="703" y="101"/>
      <point x="743" y="319" type="curve" smooth="yes"/>
      <point x="777" y="504"/>
      <point x="688" y="620"/>
      <point x="503" y="620" type="curve" smooth="yes"/>
      <point x="359" y="620"/>
      <point x="196" y="552"/>
      <point x="196" y="297" type="curve" smooth="yes"/>
      <point x="196" y="109"/>
      <point x="323" y="81"/>
      <point x="390" y="65" type="curve"/>
      <point x="397" y="121" type="line"/>
      <point x="341" y="152"/>
      <point x="310" y="231"/>
      <point x="323" y="321" type="curve" smooth="yes"/>
      <point x="329" y="365"/>
      <point x="358" y="499"/>
      <point x="494" y="499" type="curve" smooth="yes"/>
      <point x="599" y="499"/>
      <point x="619" y="411"/>
      <point x="619" y="350" type="curve" smooth="yes"/>
      <point x="619" y="265"/>
      <point x="586" y="157"/>
    </contour>
    <contour>
      <point x="162" y="121" type="line"/>
      <point x="147" y="0" type="line"/>
      <point x="382" y="0" type="line"/>
      <point x="397" y="121" type="line"/>
    </contour>
    <contour>
      <point x="507" y="121" type="line"/>
      <point x="492" y="0" type="line"/>
      <point x="716" y="0" type="line"/>
      <point x="731" y="121" type="line"/>
    </contour>
  </outline>
</glyph>
<glyph name="increment" format="2">
  <advance width="512"/>
  <unicode hex="2206"/>
  <outline>
    <contour>
      <point x="327" y="743" type="line"/>
      <point x="327" y="743" type="line"/>
      <point x="89" y="245" type="line"/>
      <point x="174" y="245" type="line"/>
      <point x="300" y="524" type="line"/>
      <point x="359" y="245" type="line"/>
      <point x="444" y="245" type="line"/>
    </contour>
    <contour>
      <point x="168" y="316" type="line"/>
      <point x="159" y="245" type="line"/>
      <point x="381" y="245" type="line"/>
      <point x="390" y="316" type="line"/>
    </contour>
  </outline>
</glyph>
<glyph name="product" format="2">
  <advance width="833"/>
  <unicode hex="220F"/>
  <outline>
    <contour>
      <point x="299" y="765" type="line"/>
      <point x="194" y="-90" type="line"/>
      <point x="319" y="-90" type="line"/>
      <point x="409" y="644" type="line"/>
      <point x="511" y="644" type="line"/>
      <point x="421" y="-90" type="line"/>
      <point x="545" y="-90" type="line"/>
      <point x="650" y="765" type="line"/>
    </contour>
  </outline>
</glyph>
<glyph name="minus" format="2">
  <advance width="530"/>
  <unicode hex="2212"/>
  <outline>
    <contour>
      <point x="116" y="273" type="line"/>
      <point x="101" y="151" type="line"/>
      <point x="468" y="151" type="line"/>
      <point x="483" y="273" type="line"/>
    </contour>
  </outline>
</glyph>
<glyph name="radical" format="2">
  <advance width="585"/>
  <unicode hex="221A"/>
  <outline>
    <contour>
      <point x="518" y="623" type="line"/>
      <point x="254" y="146" type="line"/>
      <point x="193" y="340" type="line"/>
      <point x="63" y="340" type="line"/>
      <point x="53" y="269" type="line"/>
      <point x="131" y="269" type="line"/>
      <point x="232" y="-33" type="line"/>
      <point x="603" y="623" type="line"/>
    </contour>
  </outline>
</glyph>
<glyph name="integral" format="2">
  <advance width="421"/>
  <unicode hex="222B"/>
  <outline>
    <contour>
      <point x="371" y="639" type="curve" smooth="yes"/>
      <point x="408" y="639" type="line"/>
      <point x="423" y="761" type="line"/>
      <point x="344" y="761" type="line" smooth="yes"/>
      <point x="266" y="761"/>
      <point x="206" y="769"/>
      <point x="191" y="641" type="curve"/>
      <point x="191" y="641" type="line"/>
      <point x="120" y="69" type="line" smooth="yes"/>
      <point x="109" y="-22"/>
      <point x="96" y="-31"/>
      <point x="54" y="-31" type="curve" smooth="yes"/>
      <point x="17" y="-31" type="line"/>
      <point x="2" y="-153" type="line"/>
      <point x="81" y="-153" type="line" smooth="yes"/>
      <point x="150" y="-153"/>
      <point x="219" y="-161"/>
      <point x="232" y="-53" type="curve" smooth="yes"/>
      <point x="305" y="540" type="line" smooth="yes"/>
      <point x="316" y="631"/>
      <point x="329" y="639"/>
    </contour>
  </outline>
</glyph>
<glyph name="notequal" format="2">
  <advance width="722"/>
  <unicode hex="2260"/>
  <outline>
    <contour>
      <point x="671" y="490" type="curve"/>
      <point x="609" y="554" type="line"/>
      <point x="484" y="427"/>
      <point x="226" y="166"/>
      <point x="101" y="40" type="curve"/>
      <point x="165" y="-23" type="line"/>
      <point x="290" y="103"/>
      <point x="546" y="364"/>
    </contour>
    <component base="equal"/>
  </outline>
</glyph>
<glyph name="lessequal" format="2">
  <advance width="555"/>
  <unicode hex="2264"/>
  <outline>
    <contour>
      <point x="464" y="216" type="curve"/>
      <point x="486" y="388" type="line"/>
      <point x="486" y="388" type="line"/>
      <point x="441" y="416"/>
      <point x="395" y="445"/>
      <point x="350" y="473" type="curve"/>
      <point x="401" y="501"/>
      <point x="455" y="530"/>
      <point x="506" y="558" type="curve"/>
      <point x="527" y="729" type="line"/>
      <point x="368" y="644"/>
      <point x="210" y="558"/>
      <point x="51" y="473" type="curve"/>
      <point x="189" y="387"/>
      <point x="326" y="302"/>
    </contour>
    <contour>
      <point x="52" y="163" type="line"/>
      <point x="37" y="41" type="line"/>
      <point x="404" y="41" type="line"/>
      <point x="419" y="163" type="line"/>
    </contour>
  </outline>
</glyph>
<glyph name="greaterequal" format="2">
  <advance width="556"/>
  <unicode hex="2265"/>
  <outline>
    <contour>
      <point x="153" y="729" type="curve"/>
      <point x="132" y="558" type="line"/>
      <point x="177" y="530"/>
      <point x="223" y="501"/>
      <point x="268" y="473" type="curve"/>
      <point x="217" y="445"/>
      <point x="163" y="416"/>
      <point x="112" y="388" type="curve"/>
      <point x="90" y="216" type="line"/>
      <point x="250" y="302"/>
      <point x="407" y="387"/>
      <point x="567" y="473" type="curve"/>
      <point x="428" y="558"/>
      <point x="292" y="644"/>
    </contour>
    <contour>
      <point x="83" y="163" type="line"/>
      <point x="68" y="41" type="line"/>
      <point x="435" y="41" type="line"/>
      <point x="450" y="163" type="line"/>
    </contour>
  </outline>
</glyph>
<glyph name="circumflexcomb_tildecomb" format="2">
  <anchor x="249" y="437" name="_top"/>
  <anchor x="300" y="850" name="top"/>
  <outline>
    <contour>
      <point x="362.164" y="688.012" type="curve"/>
      <point x="421.6648" y="683.88"/>
      <point x="476.2072" y="746.6864"/>
      <point x="472.0752" y="833.4584" type="curve"/>
      <point x="401.8312" y="838.4168" type="line"/>
      <point x="401.0048" y="806.1872000000001"/>
      <point x="394.3936" y="768.9992"/>
      <point x="368.7752" y="770.652" type="curve"/>
      <point x="353.0736" y="771.4784"/>
      <point x="339.8512" y="786.3536"/>
      <point x="323.3232" y="802.8815999999999" type="curve"/>
      <point x="302.6632" y="824.368"/>
      <point x="279.524" y="848.3336"/>
      <point x="246.46800000000002" y="849.9864" type="curve"/>
      <point x="168.78640000000001" y="854.9448"/>
      <point x="120.8552" y="782.2216000000001"/>
      <point x="120.0288" y="704.54" type="curve"/>
      <point x="190.27280000000002" y="699.5816" type="line"/>
      <point x="190.27280000000002" y="730.1584"/>
      <point x="201.016" y="764.8672"/>
      <point x="228.2872" y="763.2144000000001" type="curve"/>
      <point x="243.16240000000002" y="762.388"/>
      <point x="255.5584" y="750.8184"/>
      <point x="268.7808" y="737.596" type="curve"/>
      <point x="291.09360000000004" y="716.1096"/>
      <point x="315.8856" y="690.4911999999999"/>
    </contour>
    <component base="circumflexcomb"/>
  </outline>
</glyph>
